<?xml version="1.0" encoding="UTF-8"?>
<svg version="1.1" xmlns="http://www.w3.org/2000/svg" width="1024" height="559">
<path d="M0 0 C0.75686096 0.00221558 1.51372192 0.00443115 2.29351807 0.00671387 C7.7213299 0.02475892 13.14891393 0.06170848 18.57659912 0.10217285 C21.61520986 0.12281101 24.65381439 0.13890849 27.69246006 0.15334892 C34.7503374 0.18715852 41.80781872 0.23813672 48.86539555 0.31211662 C52.44080803 0.34935009 56.01600332 0.38024561 59.59158325 0.39544678 C63.65262317 0.413333 67.71269501 0.4632766 71.7734375 0.515625 C72.99807205 0.51686371 74.2227066 0.51810242 75.48445129 0.51937866 C82.17052976 0.63470922 86.53750409 1.05470759 91.9375 5.125 C96.03189434 9.75813044 97.09273305 14.09529643 96.9375 20.125 C95.56854626 26.67127502 92.70126427 31.32862162 88.375 36.3125 C87.29115171 37.61068345 86.21048157 38.91152615 85.1328125 40.21484375 C84.32505371 41.1891333 84.32505371 41.1891333 83.50097656 42.18310547 C81.11148348 45.15094245 78.92739244 48.24993864 76.75 51.375 C73.12227273 56.55613317 69.25928443 61.4433176 65.203125 66.30078125 C62.73058057 69.38293577 60.44921842 72.57534209 58.1875 75.8125 C53.93143344 81.89343721 49.33872856 87.63598216 44.62304688 93.36499023 C40.85411009 97.95712451 37.2800086 102.6434806 33.828125 107.48046875 C28.38638527 115.09215841 22.68986782 122.50000229 16.8203125 129.78515625 C11.71801449 136.12597887 6.81371761 142.609869 1.9375 149.125 C0.40050191 151.17480738 -1.13693503 153.22428394 -2.67480469 155.2734375 C-3.8929698 156.89880067 -5.10697927 158.52727666 -6.3203125 160.15625 C-6.93648437 160.9709375 -7.55265625 161.785625 -8.1875 162.625 C-8.70570313 163.3159375 -9.22390625 164.006875 -9.7578125 164.71875 C-10.18835938 165.1828125 -10.61890625 165.646875 -11.0625 166.125 C-11.7225 166.125 -12.3825 166.125 -13.0625 166.125 C-13.31257812 166.70765625 -13.56265625 167.2903125 -13.8203125 167.890625 C-19.62492931 178.33163386 -34.27704996 185.98513029 -45.0625 190.125 C-44.0101538 191.40626496 -44.0101538 191.40626496 -41.62011719 191.19433594 C2.77073004 190.53567842 2.77073004 190.53567842 40.9375 170.125 C47.74748709 162.50839308 50.27374602 154.54128849 51.3125 144.5 C50.66925233 138.71077097 49.22718888 133.24377459 46.1875 128.25 C44.9375 126.125 44.9375 126.125 45.14453125 124.30078125 C46.94556926 119.35901686 50.79245793 115.28076522 53.9375 111.125 C54.80922641 109.94577993 55.68030503 108.76608074 56.55078125 107.5859375 C57.42889672 106.41086698 58.30778982 105.23637712 59.1875 104.0625 C59.5992749 103.50248291 60.0110498 102.94246582 60.43530273 102.36547852 C62.65241565 99.44420658 64.45539028 97.41082492 67.9375 96.125 C69.6449998 97.40562485 71.31123596 98.74267557 72.9375 100.125 C72.9375 100.785 72.9375 101.445 72.9375 102.125 C73.5975 102.125 74.2575 102.125 74.9375 102.125 C87.5926306 115.26102556 91.51192977 132.55998779 91.2109375 150.3203125 C90.41878231 169.90458499 80.77492408 186.43406011 67.22265625 200.10546875 C38.13980259 225.80775138 -0.91044251 230.32432569 -38.140625 230.22265625 C-40.16371628 230.22078777 -42.18680801 230.2193659 -44.2098999 230.21836853 C-49.49681886 230.21457718 -54.78370971 230.20477634 -60.07061768 230.19366455 C-65.48066833 230.18337715 -70.8907236 230.17885531 -76.30078125 230.17382812 C-86.88803309 230.16315056 -97.47526419 230.14611548 -108.0625 230.125 C-106.62251142 227.17022885 -105.05776627 224.62145511 -103.078125 221.9921875 C-102.17924561 220.79505127 -102.17924561 220.79505127 -101.26220703 219.57373047 C-100.29710205 218.29973389 -100.29710205 218.29973389 -99.3125 217 C-98.3222583 215.68539795 -98.3222583 215.68539795 -97.31201172 214.34423828 C-92.06845914 207.4031058 -86.74625123 200.52437053 -81.36816406 193.68701172 C-80.54010254 192.63151123 -80.54010254 192.63151123 -79.6953125 191.5546875 C-79.20949707 190.93835449 -78.72368164 190.32202148 -78.22314453 189.68701172 C-76.98527444 188.11595675 -76.98527444 188.11595675 -76.0625 186.125 C-75.4025 186.125 -74.7425 186.125 -74.0625 186.125 C-73.81113281 185.39796875 -73.55976562 184.6709375 -73.30078125 183.921875 C-71.95974922 180.89291937 -70.4046088 178.88537908 -68.25 176.375 C-61.92388593 168.82644842 -56.00460772 160.97727516 -50.0625 153.125 C-49.62341309 152.54508301 -49.18432617 151.96516602 -48.73193359 151.36767578 C-43.93664663 145.02576965 -39.24738859 138.62581035 -34.69140625 132.109375 C-33.88509766 131.12710938 -33.88509766 131.12710938 -33.0625 130.125 C-32.4025 130.125 -31.7425 130.125 -31.0625 130.125 C-30.83046875 129.42761719 -30.5984375 128.73023438 -30.359375 128.01171875 C-28.8090775 124.56090595 -26.68402215 121.84496174 -24.3125 118.9375 C-23.31582786 117.69186882 -22.31976382 116.4457509 -21.32421875 115.19921875 C-20.79489746 114.53970215 -20.26557617 113.88018555 -19.72021484 113.20068359 C-16.82426978 109.57456799 -13.97421201 105.9128797 -11.125 102.25 C-10.53170898 101.48792236 -9.93841797 100.72584473 -9.32714844 99.94067383 C-5.02300595 94.39747778 -0.80011544 88.79794826 3.39379883 83.17114258 C8.91793824 75.77785773 14.6091125 68.51562133 20.28759766 61.24072266 C22.78261011 58.04128823 25.26980236 54.83592941 27.75 51.625 C28.93529297 50.09359375 28.93529297 50.09359375 30.14453125 48.53125 C31.93650814 46.27349271 31.93650814 46.27349271 32.9375 44.125 C33.5975 44.125 34.2575 44.125 34.9375 44.125 C35.2675 42.805 35.5975 41.485 35.9375 40.125 C35.18740662 40.12722061 34.43731323 40.12944122 33.66448975 40.13172913 C26.54561584 40.15188628 19.42675206 40.16705203 12.30785751 40.17681217 C8.64923623 40.18199885 4.99063881 40.18901852 1.33203125 40.20043945 C-2.20821106 40.21141991 -5.74843062 40.21730845 -9.28868866 40.21987724 C-11.27582043 40.22258498 -13.26294323 40.2303721 -15.25006104 40.23829651 C-22.90683006 40.23876276 -30.44457063 39.90348702 -38.0625 39.125 C-36.10575418 28.60329819 -30.93151357 18.57807085 -26.33544922 8.96142578 C-25.09604734 6.36724653 -23.97311936 3.85685809 -23.0625 1.125 C-15.39339964 -0.1091081 -7.74501867 -0.02994344 0 0 Z " fill="#151514" transform="translate(594.0625,198.875)"/>
<path d="M0 0 C0.66 0 1.32 0 2 0 C0.39461363 6.49799246 -2.0125641 12.36600517 -4.90869141 18.39013672 C-7.77830348 24.41097856 -10.36666496 30.53402102 -12.9375 36.6875 C-17.87030588 48.46611856 -23.02983482 60.13435642 -28.23986816 71.79226685 C-32.47686058 81.27538428 -36.64521789 90.77514658 -40.61791992 100.37280273 C-42.45005473 104.77500834 -44.46849547 109.01314229 -46.6640625 113.2421875 C-49.33622814 118.75841247 -51.59866893 124.46154159 -53.95703125 130.1171875 C-59.28359887 142.88591006 -64.81093871 155.62187743 -71 168 C-70.14613708 167.8946418 -70.14613708 167.8946418 -69.27502441 167.78715515 C-62.11962529 166.98006723 -55.0398158 166.83889298 -47.84375 166.83203125 C-46.61966431 166.82870285 -45.39557861 166.82537445 -44.13439941 166.82194519 C-41.56616591 166.81691068 -38.99792594 166.81453578 -36.4296875 166.81469727 C-32.48426837 166.8124912 -28.53912049 166.79424573 -24.59375 166.77539062 C-22.09375095 166.77245997 -19.59375059 166.77047298 -17.09375 166.76953125 C-15.91051147 166.76234573 -14.72727295 166.75516022 -13.50817871 166.74775696 C-12.41944458 166.75083359 -11.33071045 166.75391022 -10.20898438 166.75708008 C-9.24875366 166.75565506 -8.28852295 166.75423004 -7.29919434 166.75276184 C-5 167 -5 167 -3 169 C-3.69867187 169.97582031 -4.39734375 170.95164062 -5.1171875 171.95703125 C-6.03648348 173.24216951 -6.95575293 174.52732675 -7.875 175.8125 C-8.33519531 176.45509766 -8.79539062 177.09769531 -9.26953125 177.75976562 C-9.71425781 178.38173828 -10.15898438 179.00371094 -10.6171875 179.64453125 C-11.02565918 180.21534424 -11.43413086 180.78615723 -11.85498047 181.37426758 C-12.92862832 182.89866439 -13.9657399 184.44860985 -15 186 C-15.66 186 -16.32 186 -17 186 C-17.20625 186.66 -17.4125 187.32 -17.625 188 C-19.5197763 192.13405738 -22.20040827 195.43644714 -25 199 C-25.87241333 200.12559326 -25.87241333 200.12559326 -26.76245117 201.27392578 C-28.50365439 203.51960759 -30.25165087 205.75988009 -32 208 C-42.32403085 221.26336882 -42.32403085 221.26336882 -52 235 C-52.66 235 -53.32 235 -54 235 C-54.27328125 235.57234375 -54.5465625 236.1446875 -54.828125 236.734375 C-58.29484655 243.43670333 -62.93484933 250.4008726 -68 256 C-68.66 256 -69.32 256 -70 256 C-70.20238281 256.65484375 -70.40476562 257.3096875 -70.61328125 257.984375 C-72.55637573 262.20992131 -75.32565202 265.60412828 -78.1875 269.25 C-78.73986328 269.96285156 -79.29222656 270.67570312 -79.86132812 271.41015625 C-82.14925876 274.35975324 -84.45023282 277.29901623 -86.75390625 280.23632812 C-90.80887459 285.42218209 -94.74238653 290.68423715 -98.625 296 C-103.30767798 302.38650182 -108.04766506 308.72212499 -112.875 315 C-116.95773021 320.31002805 -120.97176546 325.65521249 -124.8828125 331.09375 C-128.21644531 335.66980685 -131.63488345 340.18234876 -135.05297852 344.69555664 C-135.54983154 345.35418701 -136.04668457 346.01281738 -136.55859375 346.69140625 C-137.00517334 347.28123291 -137.45175293 347.87105957 -137.91186523 348.47875977 C-139.07740945 350.02430055 -139.07740945 350.02430055 -140 352 C-140.66 352 -141.32 352 -142 352 C-142.2578125 352.73347656 -142.515625 353.46695312 -142.78125 354.22265625 C-144.0483863 357.11026493 -145.46954089 359.03673175 -147.5 361.4375 C-151.48647188 366.27091462 -155.11334879 371.29118308 -158.67382812 376.44116211 C-161.79013188 380.89506594 -161.79013188 380.89506594 -164 382 C-162.40383938 373.1765034 -159.21181174 364.98273291 -156.0625 356.625 C-155.47906718 355.06478542 -154.89565269 353.50456398 -154.31225586 351.94433594 C-149.49417659 339.11003601 -144.38687239 326.40737073 -139.13671875 313.74365234 C-135.48635692 304.93292076 -131.97804983 296.13747631 -129.0480957 287.05566406 C-128.05530119 284.16122751 -126.93958148 281.37588205 -125.73828125 278.5625 C-122.7637717 271.49294276 -120.00119986 264.34588248 -117.25 257.1875 C-112.21210739 244.10677613 -107.10808534 231.05399586 -102 218 C-124.44 218 -146.88 218 -170 218 C-168.29446844 213.73617109 -167.08154642 211.58425821 -164.25 208.1875 C-161.79625669 205.22658533 -159.41448316 202.23819953 -157.12109375 199.15234375 C-154.12606973 195.13429499 -150.99244211 191.24737633 -147.8125 187.375 C-143.48306274 182.07117373 -139.17812506 176.75019422 -134.9375 171.375 C-134.49704346 170.81989746 -134.05658691 170.26479492 -133.6027832 169.69287109 C-131.53904051 167.06701484 -129.6043199 164.41903086 -127.81640625 161.6015625 C-127.21699219 160.74304688 -126.61757813 159.88453125 -126 159 C-125.34 159 -124.68 159 -124 159 C-123.6596875 157.94619141 -123.6596875 157.94619141 -123.3125 156.87109375 C-121.73102389 153.41161476 -119.5104462 150.86478827 -117 148.0625 C-112.32975291 142.72896728 -108.14440227 137.19084947 -104.17382812 131.31860352 C-103.16176376 129.84645268 -102.08645829 128.41813636 -101 127 C-100.34 127 -99.68 127 -99 127 C-98.7628125 126.46890625 -98.525625 125.9378125 -98.28125 125.390625 C-96.62621616 122.30257405 -94.59451872 119.5471528 -92.5 116.75 C-92.09652344 116.19570312 -91.69304687 115.64140625 -91.27734375 115.0703125 C-90.23549829 113.67430835 -89.12254588 112.33197608 -88 111 C-87.34 111 -86.68 111 -86 111 C-85.731875 110.43796875 -85.46375 109.8759375 -85.1875 109.296875 C-83.9196021 106.84449354 -82.51027658 104.56072317 -81 102.25 C-80.484375 101.45078125 -79.96875 100.6515625 -79.4375 99.828125 C-78.963125 99.22484375 -78.48875 98.6215625 -78 98 C-77.34 98 -76.68 98 -76 98 C-75.73445312 97.42378906 -75.46890625 96.84757812 -75.1953125 96.25390625 C-73.95063577 93.90691778 -72.53820154 92.00683214 -70.875 89.9375 C-67.30211153 85.44330066 -63.98556382 80.79661302 -60.69921875 76.08984375 C-60.13847656 75.40019531 -59.57773437 74.71054688 -59 74 C-58.34 74 -57.68 74 -57 74 C-56.72760498 73.41822998 -56.45520996 72.83645996 -56.17456055 72.23706055 C-55.01395142 70.02657178 -53.73127159 68.18074315 -52.20703125 66.20703125 C-51.66216064 65.49796631 -51.11729004 64.78890137 -50.5559082 64.05834961 C-49.9805835 63.31721924 -49.40525879 62.57608887 -48.8125 61.8125 C-48.22750732 61.05525635 -47.64251465 60.2980127 -47.03979492 59.51782227 C-45.88315463 58.02107867 -44.72538955 56.52520349 -43.56640625 55.03027344 C-42.25018804 53.32427739 -40.95115774 51.60503979 -39.65625 49.8828125 C-39.0478125 49.07585937 -38.439375 48.26890625 -37.8125 47.4375 C-37.30332031 46.75558594 -36.79414062 46.07367188 -36.26953125 45.37109375 C-35.64111328 44.69240234 -35.64111328 44.69240234 -35 44 C-34.34 44 -33.68 44 -33 44 C-32.76539063 43.29230469 -32.53078125 42.58460938 -32.2890625 41.85546875 C-30.7608154 38.47016987 -28.79993145 36.12406913 -26.375 33.3125 C-25.46406864 32.24415 -24.55392176 31.17513065 -23.64453125 30.10546875 C-23.19416504 29.57872559 -22.74379883 29.05198242 -22.27978516 28.50927734 C-19.09216797 24.75005387 -16.05621746 20.86603188 -13 17 C-12.54383301 16.42362793 -12.08766602 15.84725586 -11.61767578 15.25341797 C-10.11839205 13.35780014 -8.62128907 11.46048232 -7.125 9.5625 C-6.64812744 8.95873535 -6.17125488 8.3549707 -5.67993164 7.73291016 C-3.69065037 5.20317592 -1.78618927 2.6792839 0 0 Z " fill="#151514" transform="translate(598,87)"/>
<path d="M0 0 C11.16879557 9.3895395 11.16879557 9.3895395 13.4765625 15.08203125 C13.30776056 20.51348185 9.70331641 24.14392871 6.4765625 28.20703125 C5.88931396 28.96040771 5.30206543 29.71378418 4.69702148 30.48999023 C0.67996225 35.62341762 -3.41753955 40.68794621 -7.5859375 45.69921875 C-9.96021734 48.6192 -12.16723202 51.64115794 -14.33203125 54.71875 C-14.72519531 55.16863281 -15.11835938 55.61851562 -15.5234375 56.08203125 C-16.1834375 56.08203125 -16.8434375 56.08203125 -17.5234375 56.08203125 C-17.48863281 55.33179688 -17.45382812 54.5815625 -17.41796875 53.80859375 C-17.14290924 43.40872456 -18.51819317 35.74762549 -25.31640625 27.67578125 C-26.5234375 26.08203125 -26.5234375 26.08203125 -26.5234375 24.08203125 C-27.1834375 23.83453125 -27.8434375 23.58703125 -28.5234375 23.33203125 C-31.5234375 22.08203125 -31.5234375 22.08203125 -34.9609375 20.14453125 C-53.83715753 10.74163807 -78.09982725 14.49510058 -97.34765625 20.87109375 C-118.42734196 28.90885829 -135.0777352 42.71788852 -144.62109375 63.46875 C-147.6741478 71.83269807 -148.64237999 84.5338905 -144.9609375 92.76953125 C-142.56129739 96.60722284 -139.12876269 99.40841931 -135.5234375 102.08203125 C-136.54129156 108.27521118 -139.25987125 113.6533548 -141.8359375 119.33203125 C-142.32255859 120.44578125 -142.80917969 121.55953125 -143.31054688 122.70703125 C-143.78943359 123.7640625 -144.26832031 124.82109375 -144.76171875 125.91015625 C-145.19524658 126.87856445 -145.62877441 127.84697266 -146.07543945 128.84472656 C-147.5234375 131.08203125 -147.5234375 131.08203125 -149.5 131.97290039 C-155.86803161 132.31634997 -163.5538534 126.76543646 -168.265625 122.73828125 C-180.62296151 109.59040806 -182.21156414 95.53417737 -181.90234375 78.19140625 C-181.35111451 65.45978901 -176.79689043 54.09359205 -170.5234375 43.08203125 C-170.05421875 42.25316406 -169.585 41.42429688 -169.1015625 40.5703125 C-167.98713439 38.69217336 -166.76652702 36.877605 -165.5234375 35.08203125 C-164.8634375 35.08203125 -164.2034375 35.08203125 -163.5234375 35.08203125 C-163.26473877 34.33727539 -163.00604004 33.59251953 -162.73950195 32.82519531 C-161.48313883 29.99112665 -160.22751805 28.38655352 -158.06640625 26.19140625 C-157.37264893 25.4862085 -156.6788916 24.78101074 -155.96411133 24.05444336 C-155.22056396 23.32104736 -154.4770166 22.58765137 -153.7109375 21.83203125 C-152.94483154 21.07349854 -152.17872559 20.31496582 -151.3894043 19.53344727 C-145.20040217 13.52118163 -138.92486055 8.55752228 -131.5234375 4.08203125 C-130.6871582 3.55923584 -130.6871582 3.55923584 -129.83398438 3.02587891 C-121.40536863 -2.23131575 -112.96451607 -5.81454116 -103.5234375 -8.91796875 C-102.18671266 -9.45121097 -100.85272783 -9.99145468 -99.5234375 -10.54296875 C-69.63277788 -21.90529292 -25.770607 -19.87909655 0 0 Z " fill="#151513" transform="translate(515.5234375,130.91796875)"/>
<path d="M0 0 C0.33 0.66 0.66 1.32 1 2 C0.03125 4.29296875 0.03125 4.29296875 -1.5 7.1875 C-3.8261984 11.69084976 -6.06172826 16.21095052 -8.1875 20.8125 C-11.20677834 27.34378913 -14.31656768 33.82925201 -17.4375 40.3125 C-20.79174074 47.28320039 -24.04273594 54.28000657 -27.125 61.375 C-30.02592181 68.0359913 -33.26919971 74.43957245 -36.71972656 80.83105469 C-39.71144114 86.39003594 -42.42427163 92.0505849 -45.0546875 97.7890625 C-47.47247276 103.05647273 -49.9918403 108.2751959 -52.5 113.5 C-55.60005401 119.96232769 -58.6805195 126.4313433 -61.6875 132.9375 C-64.98637727 140.03008612 -68.43185168 147.03850497 -71.98828125 154.00488281 C-72.99672394 155.99353959 -73.9829963 157.99220713 -74.96875 159.9921875 C-81.57582416 173.17183842 -90.82202623 185.47849613 -105.2109375 190.60546875 C-114.56298334 193.58527251 -123.17107828 194.71109562 -133 194 C-134.42815832 189.71552505 -132.46285152 187.14348244 -130.5625 183.3125 C-130.19705078 182.55718994 -129.83160156 181.80187988 -129.45507812 181.02368164 C-128.31490565 178.67659847 -127.15981342 176.33743208 -126 174 C-125.48542236 172.95827637 -125.48542236 172.95827637 -124.96044922 171.89550781 C-122.33567657 166.589322 -119.66930916 161.30438444 -117 156.02050781 C-113.23383483 148.5580575 -109.53608038 141.07460187 -106 133.5 C-101.83836115 124.58539569 -97.43576857 115.80107704 -93 107.02050781 C-89.24569979 99.58156727 -85.56876747 92.12191576 -82.0625 84.5625 C-79.46175582 78.96011644 -76.69758706 73.48974056 -73.75 68.0625 C-69.22038299 59.7134812 -65.29264893 51.10848756 -61.42480469 42.43579102 C-53.3313511 24.50412945 -44.39596213 10.72314168 -25.58984375 3.01171875 C-17.14575991 -0.04437334 -8.87932586 -0.14690061 0 0 Z " fill="#151514" transform="translate(468,175)"/>
<path d="M0 0 C5.85295858 -0.24805523 11.70283404 -0.42903011 17.55981445 -0.54931641 C19.54961451 -0.59946992 21.53904845 -0.66761595 23.52758789 -0.75439453 C40.10033534 -1.45926495 40.10033534 -1.45926495 44.76123047 2.12109375 C46.52665866 4.6817896 47.72111454 7.17495938 49 10 C50.96605022 12.32488621 50.96605022 12.32488621 53 14.25 C54.8125 16.015625 54.8125 16.015625 56 18 C55.79076632 23.16358838 53.66413059 27.82385348 51.75 32.5625 C51.11825573 34.15485516 50.48674727 35.74730389 49.85546875 37.33984375 C49.54270996 38.12343262 49.22995117 38.90702148 48.90771484 39.71435547 C47.59967078 43.00803717 46.33030845 46.31562034 45.0625 49.625 C44.66160156 50.66914063 44.26070313 51.71328125 43.84765625 52.7890625 C43.56792969 53.51867187 43.28820312 54.24828125 43 55 C32.73825913 53.32893669 23.02296925 40.90103143 17.13574219 32.90454102 C0 9.05044972 0 9.05044972 0 0 Z " fill="#151514" transform="translate(409,322)"/>
<path d="M0 0 C2.49361571 1.20381448 4.68143083 2.45428722 7 4 C7 4.66 7 5.32 7 6 C7.66 6 8.32 6 9 6 C21.6551306 19.13602556 25.57442977 36.43498779 25.2734375 54.1953125 C24.48128231 73.77958499 14.83742408 90.30906011 1.28515625 103.98046875 C-27.79769741 129.68275138 -66.84794251 134.19932569 -104.078125 134.09765625 C-106.10121628 134.09578777 -108.12430801 134.0943659 -110.1473999 134.09336853 C-115.43431886 134.08957718 -120.72120971 134.07977634 -126.00811768 134.06866455 C-131.41816833 134.05837715 -136.8282236 134.05385531 -142.23828125 134.04882812 C-152.82553309 134.03815056 -163.41276419 134.02111548 -174 134 C-172.56001142 131.04522885 -170.99526627 128.49645511 -169.015625 125.8671875 C-168.41637207 125.06909668 -167.81711914 124.27100586 -167.19970703 123.44873047 C-166.23460205 122.17473389 -166.23460205 122.17473389 -165.25 120.875 C-164.2597583 119.56039795 -164.2597583 119.56039795 -163.24951172 118.21923828 C-158.00595914 111.2781058 -152.68375123 104.39937053 -147.30566406 97.56201172 C-146.75362305 96.85834473 -146.20158203 96.15467773 -145.6328125 95.4296875 C-145.14699707 94.81335449 -144.66118164 94.19702148 -144.16064453 93.56201172 C-142.92277444 91.99095675 -142.92277444 91.99095675 -142 90 C-141.34 90 -140.68 90 -140 90 C-139.74863281 89.27296875 -139.49726562 88.5459375 -139.23828125 87.796875 C-137.89724922 84.76791937 -136.3421088 82.76037908 -134.1875 80.25 C-130.16183932 75.44643387 -126.29818945 70.54786557 -122.5 65.5625 C-121.66698364 64.47098633 -121.66698364 64.47098633 -120.81713867 63.35742188 C-118.30595254 60.0588831 -115.80803079 56.75171864 -113.34375 53.41796875 C-112.5703125 52.37253906 -111.796875 51.32710938 -111 50.25 C-110.34 49.34765625 -109.68 48.4453125 -109 47.515625 C-106.8414715 44.80060088 -104.49380772 42.40721717 -102 40 C-101 42 -101 42 -101 45 C-101.33 45.99 -101.66 46.98 -102 48 C-104.0625 48.6875 -104.0625 48.6875 -106 49 C-106.061875 49.78375 -106.12375 50.5675 -106.1875 51.375 C-106.455625 52.24125 -106.72375 53.1075 -107 54 C-108.66666667 54.66666667 -110.33333333 55.33333333 -112 56 C-112.89386164 58.54775306 -112.89386164 58.54775306 -113 61 C-113.99 61 -114.98 61 -116 61 C-116.391875 61.886875 -116.78375 62.77375 -117.1875 63.6875 C-119 67 -119 67 -121.625 69.5 C-124.36887184 72.38828615 -124.72739925 74.09272255 -125 78 C-125.99 77.67 -126.98 77.34 -128 77 C-128.99 78.98 -129.98 80.96 -131 83 C-131.66 83 -132.32 83 -133 83 C-133.37125 84.051875 -133.7425 85.10375 -134.125 86.1875 C-135.36247958 89.1646248 -136.58335198 90.67864824 -139.1875 92.5625 C-142.35009191 94.74752807 -142.35009191 94.74752807 -142.375 98.3125 C-142.25125 99.199375 -142.1275 100.08625 -142 101 C-142.66 101 -143.32 101 -144 101 C-144.495 100.01 -144.495 100.01 -145 99 C-147.45579697 102.68564084 -147.45579697 102.68564084 -148 107 C-148.99 107 -149.98 107 -151 107 C-151.391875 107.9075 -151.78375 108.815 -152.1875 109.75 C-154.13752534 113.24659715 -155.89587044 114.54557198 -159 117 C-162.69290471 121.20902152 -165.00844207 124.4451001 -166 130 C-154.33287236 130.06999737 -142.66579597 130.1230609 -130.99849987 130.15543652 C-125.57892035 130.17098751 -120.15948616 130.19202883 -114.73999023 130.22631836 C-109.49445004 130.25929357 -104.24904822 130.27693208 -99.00341225 130.28463173 C-97.01788472 130.29010765 -95.03236339 130.3007969 -93.04689598 130.31719017 C-71.05204442 130.60098083 -71.05204442 130.60098083 -50 125 C-46.73135508 124.19092948 -43.44817926 123.48886096 -40.15625 122.78125 C-35.91216973 121.73073508 -32.640398 120.426932 -29 118 C-27.45233858 117.4172881 -25.88807778 116.87735813 -24.3125 116.375 C-23.50425781 116.11460937 -22.69601562 115.85421875 -21.86328125 115.5859375 C-21.24839844 115.39257812 -20.63351562 115.19921875 -20 115 C-20 114.34 -20 113.68 -20 113 C-19.030625 112.79375 -18.06125 112.5875 -17.0625 112.375 C-12.21433902 110.97706401 -7.66106771 108.48037123 -4 105 C-3.18687935 102.3942481 -3.18687935 102.3942481 -3 100 C-1.02 100 0.96 100 3 100 C3.0825 99.21625 3.165 98.4325 3.25 97.625 C3.4975 96.75875 3.745 95.8925 4 95 C4.598125 94.731875 5.19625 94.46375 5.8125 94.1875 C10.53963762 91.62133958 12.8536157 85.74214933 15 81 C15.51859387 78.03274119 15.40554874 76.0126478 15 73 C15.99 74.485 15.99 74.485 17 76 C19.66541602 70.63122923 20.44699207 66.49549179 20.3984375 60.5390625 C20.40130768 59.74905853 20.40417786 58.95905457 20.40713501 58.14511108 C20.40916564 56.48280109 20.40370619 54.82046666 20.39111328 53.15820312 C20.37508758 50.63876806 20.39097312 48.12094739 20.41015625 45.6015625 C20.4191678 37.5230102 20.32681201 30.51613085 17 23 C16.34 23.66 15.68 24.32 15 25 C14.896875 23.948125 14.79375 22.89625 14.6875 21.8125 C14.01842175 18.10215698 13.3175287 15.94147873 11 13 C10.01 13 9.02 13 8 13 C7.87625 12.38125 7.7525 11.7625 7.625 11.125 C7.12802644 8.80879168 7.12802644 8.80879168 5 7 C4.01 7 3.02 7 2 7 C2.33 6.01 2.66 5.02 3 4 C1.08533633 4.12177688 1.08533633 4.12177688 -1 5 C-2.04892238 6.63631892 -3.04906703 8.30485863 -4 10 C-4.99 10.66 -5.98 11.32 -7 12 C-5.63855967 6.80177328 -3.53269829 3.90456127 0 0 Z " fill="#080506" transform="translate(660,295)"/>
<path d="M0 0 C0.99 0.33 1.98 0.66 3 1 C1.3005758 7.64320368 -2.49465347 10.7369188 -7.5625 15 C-12.92372501 19.59032991 -15.4300228 22.7327907 -16 30 C-17.32 30 -18.64 30 -20 30 C-20.37125 31.4540625 -20.37125 31.4540625 -20.75 32.9375 C-21.1625 33.948125 -21.575 34.95875 -22 36 C-24 36.625 -24 36.625 -26 37 C-27.28436734 38.9837767 -27.28436734 38.9837767 -28 41 C-28.66 41 -29.32 41 -30 41 C-30.28875 41.86625 -30.5775 42.7325 -30.875 43.625 C-31.91666667 46.75 -32.95833333 49.875 -34 53 C-34.721875 53.04125 -35.44375 53.0825 -36.1875 53.125 C-40.18908626 54.36993795 -41.62231094 56.63160717 -44 60 C-44.85279338 62.21735439 -44.85279338 62.21735439 -45 64 C-45.61875 64.04125 -46.2375 64.0825 -46.875 64.125 C-47.57625 64.41375 -48.2775 64.7025 -49 65 C-49.309375 65.928125 -49.61875 66.85625 -49.9375 67.8125 C-51.20967002 71.62901007 -52.87272039 72.61339187 -56 75 C-56 75.99 -56 76.98 -56 78 C-56.31088368 79.67099977 -56.64080332 81.33871537 -57 83 C-57.75925781 82.92136719 -58.51851563 82.84273438 -59.30078125 82.76171875 C-62.06896678 82.72387681 -62.06896678 82.72387681 -63.73046875 84.64453125 C-64.21128906 85.35996094 -64.69210937 86.07539063 -65.1875 86.8125 C-65.67605469 87.52019531 -66.16460937 88.22789062 -66.66796875 88.95703125 C-67.10753906 89.63121094 -67.54710937 90.30539062 -68 91 C-70 94 -70 94 -71.5 95.4375 C-73.08616248 96.92164571 -73.08616248 96.92164571 -73.875 98.875 C-75 101 -75 101 -77.5625 103.4375 C-80.11210474 106.1178537 -80.69062979 107.39068083 -81 111 C-81.99 111 -82.98 111 -84 111 C-84.309375 111.61875 -84.61875 112.2375 -84.9375 112.875 C-85.625 114.25 -86.3125 115.625 -87 117 C-88.485 117.495 -88.485 117.495 -90 118 C-90.28875 118.7425 -90.5775 119.485 -90.875 120.25 C-92 123 -92 123 -94.5625 125.375 C-97.71748646 128.27257546 -97.71748646 128.27257546 -98 135 C-77.54 135 -57.08 135 -36 135 C-36 138.54178684 -36.22871699 139.99026129 -37.4375 143.125 C-39.17114485 148.03971959 -39.68641096 152.82037415 -40 158 C-40.66 157.01 -41.32 156.02 -42 155 C-44.4021604 159.8043208 -44.61122229 164.73103895 -45 170 C-45.99 170.33 -46.98 170.66 -48 171 C-50.66422132 176.10916517 -51.36203841 181.32806491 -51 187 C-51.99 187 -52.98 187 -54 187 C-54.33 188.65 -54.66 190.3 -55 192 C-55.66 192 -56.32 192 -57 192 C-57 195.3 -57 198.6 -57 202 C-60 198 -60 198 -59.83789062 194.66601562 C-59.01248402 191.05462124 -57.95276629 187.78805044 -56.59375 184.34375 C-56.22836121 183.4083136 -56.22836121 183.4083136 -55.85559082 182.45397949 C-55.07740162 180.46648058 -54.28900921 178.48322475 -53.5 176.5 C-53.0019103 175.23334555 -52.5045108 173.96641946 -52.0078125 172.69921875 C-50.34410948 168.46395445 -48.67175226 164.23209355 -47 160 C-44.03 152.41 -41.06 144.82 -38 137 C-60.44 137 -82.88 137 -106 137 C-104.29446844 132.73617109 -103.08154642 130.58425821 -100.25 127.1875 C-97.79625669 124.22658533 -95.41448316 121.23819953 -93.12109375 118.15234375 C-90.12606973 114.13429499 -86.99244211 110.24737633 -83.8125 106.375 C-79.48306274 101.07117373 -75.17812506 95.75019422 -70.9375 90.375 C-70.49704346 89.81989746 -70.05658691 89.26479492 -69.6027832 88.69287109 C-67.53904051 86.06701484 -65.6043199 83.41903086 -63.81640625 80.6015625 C-63.21699219 79.74304688 -62.61757813 78.88453125 -62 78 C-61.34 78 -60.68 78 -60 78 C-59.773125 77.29746094 -59.54625 76.59492188 -59.3125 75.87109375 C-57.73102389 72.41161476 -55.5104462 69.86478827 -53 67.0625 C-48.32975291 61.72896728 -44.14440227 56.19084947 -40.17382812 50.31860352 C-39.16176376 48.84645268 -38.08645829 47.41813636 -37 46 C-36.34 46 -35.68 46 -35 46 C-34.7628125 45.46890625 -34.525625 44.9378125 -34.28125 44.390625 C-32.62621616 41.30257405 -30.59451872 38.5471528 -28.5 35.75 C-27.89478516 34.91855469 -27.89478516 34.91855469 -27.27734375 34.0703125 C-26.23549829 32.67430835 -25.12254588 31.33197608 -24 30 C-23.34 30 -22.68 30 -22 30 C-21.731875 29.43796875 -21.46375 28.8759375 -21.1875 28.296875 C-19.9196021 25.84449354 -18.51027658 23.56072317 -17 21.25 C-16.484375 20.45078125 -15.96875 19.6515625 -15.4375 18.828125 C-14.963125 18.22484375 -14.48875 17.6215625 -14 17 C-13.34 17 -12.68 17 -12 17 C-11.74089844 16.4328125 -11.48179687 15.865625 -11.21484375 15.28125 C-9.88347495 12.78118768 -8.32605604 10.71487468 -6.5625 8.5 C-4.33686303 5.69271708 -2.13703446 2.87552037 0 0 Z " fill="#0A0608" transform="translate(534,168)"/>
<path d="M0 0 C0.75686096 0.00221558 1.51372192 0.00443115 2.29351807 0.00671387 C7.7213299 0.02475892 13.14891393 0.06170848 18.57659912 0.10217285 C21.61520986 0.12281101 24.65381439 0.13890849 27.69246006 0.15334892 C34.7503374 0.18715852 41.80781872 0.23813672 48.86539555 0.31211662 C52.44080803 0.34935009 56.01600332 0.38024561 59.59158325 0.39544678 C63.65262317 0.413333 67.71269501 0.4632766 71.7734375 0.515625 C72.99807205 0.51686371 74.2227066 0.51810242 75.48445129 0.51937866 C82.16219651 0.63456548 86.55827416 1.03140449 91.9375 5.125 C95.9375 10.15064103 95.9375 10.15064103 95.9375 14.125 C95.2775 14.125 94.6175 14.125 93.9375 14.125 C93.6075 14.785 93.2775 15.445 92.9375 16.125 C92.834375 15.031875 92.73125 13.93875 92.625 12.8125 C91.87580134 8.6842488 91.87580134 8.6842488 88.9375 6.125 C86.80261471 5.66823135 86.80261471 5.66823135 84.40071106 5.72627258 C83.47103012 5.71373444 82.54134918 5.70119629 81.58349609 5.6882782 C80.56570068 5.68971329 79.54790527 5.69114838 78.49926758 5.69262695 C76.88927132 5.67733948 76.88927132 5.67733948 75.24674988 5.66174316 C71.69179135 5.63149974 68.13710177 5.62232972 64.58203125 5.61328125 C62.12008256 5.59644302 59.65814252 5.57829395 57.19621277 5.55888367 C50.710731 5.51128485 44.22528426 5.48153932 37.73968506 5.45544434 C31.12391235 5.42568869 24.50826047 5.37914125 17.89257812 5.33398438 C4.90761766 5.2478388 -8.07737208 5.17997357 -21.0625 5.125 C-21.5575 6.1975 -22.0525 7.27 -22.5625 8.375 C-22.8409375 8.97828125 -23.119375 9.5815625 -23.40625 10.203125 C-24.27792924 12.41742836 -24.27792924 12.41742836 -24.0625 16.125 C-25.0525 16.125 -26.0425 16.125 -27.0625 16.125 C-27.19527344 16.78886719 -27.32804688 17.45273438 -27.46484375 18.13671875 C-28.33072917 22.46614583 -29.19661458 26.79557292 -30.0625 31.125 C-30.7225 30.465 -31.3825 29.805 -32.0625 29.125 C-33.3825 32.095 -34.7025 35.065 -36.0625 38.125 C-11.3125 37.795 13.4375 37.465 38.9375 37.125 C35.9375 40.125 35.9375 40.125 33.3037262 40.49249268 C32.24515915 40.48884705 31.1865921 40.48520142 30.09594727 40.48144531 C28.89361954 40.48444641 27.69129181 40.48744751 26.45252991 40.49053955 C25.1494841 40.47819275 23.84643829 40.46584595 22.50390625 40.453125 C21.14688832 40.45006374 19.78986725 40.44819041 18.43284607 40.44744873 C15.58214349 40.44284238 12.73172285 40.42841884 9.88110352 40.40625 C6.26037001 40.37820966 2.63986041 40.36706228 -0.98097134 40.3625679 C-4.46520662 40.35735541 -7.94938808 40.34284428 -11.43359375 40.328125 C-12.71842148 40.32387512 -14.00324921 40.31962524 -15.32701111 40.31524658 C-22.9508493 40.25573043 -30.47590527 39.88559551 -38.0625 39.125 C-36.10575418 28.60329819 -30.93151357 18.57807085 -26.33544922 8.96142578 C-25.09604734 6.36724653 -23.97311936 3.85685809 -23.0625 1.125 C-15.39339964 -0.1091081 -7.74501867 -0.02994344 0 0 Z " fill="#080607" transform="translate(594.0625,198.875)"/>
<path d="M0 0 C0 0.66 0 1.32 0 2 C-1.65 2.66 -3.3 3.32 -5 4 C-5 4.66 -5 5.32 -5 6 C-6.6396875 6.61875 -6.6396875 6.61875 -8.3125 7.25 C-11.54382185 8.64415902 -13.24336196 9.85654245 -15 13 C-15.4640625 14.3303125 -15.4640625 14.3303125 -15.9375 15.6875 C-17 18 -17 18 -19.125 18.8125 C-20.053125 18.9053125 -20.053125 18.9053125 -21 19 C-21.495 21.475 -21.495 21.475 -22 24 C-23.485 24.495 -23.485 24.495 -25 25 C-26.73387524 27.52106956 -27.90519221 30.35169056 -29.1875 33.125 C-29.73954102 34.24648437 -29.73954102 34.24648437 -30.30273438 35.390625 C-32.55723335 40.19241503 -33.42873271 43.70058255 -33 49 C-33.99 49.495 -33.99 49.495 -35 50 C-35.33 49.34 -35.66 48.68 -36 48 C-37.98 52.95 -37.98 52.95 -40 58 C-40.66 58 -41.32 58 -42 58 C-44.59275138 66.34034505 -44.59275138 66.34034505 -45 75 C-45.99 75.495 -45.99 75.495 -47 76 C-47 75.01 -47 74.02 -47 73 C-52.18866744 77.5533204 -54.70316874 85.0176665 -56.125 91.625 C-56.41375 92.73875 -56.7025 93.8525 -57 95 C-57.99 95.33 -58.98 95.66 -60 96 C-62.02851102 99.83163192 -62.49770926 103.73052871 -63 108 C-63.99 107.01 -63.99 107.01 -65 106 C-65.28875 107.051875 -65.5775 108.10375 -65.875 109.1875 C-68.27290401 117.31373026 -68.27290401 117.31373026 -70.4609375 119.37890625 C-72.22388652 121.23581956 -72.85841432 122.77920351 -73.6875 125.1875 C-73.93886719 125.90292969 -74.19023437 126.61835938 -74.44921875 127.35546875 C-74.63097656 127.89816406 -74.81273437 128.44085938 -75 129 C-74.34 129.33 -73.68 129.66 -73 130 C-74.485 131.98 -74.485 131.98 -76 134 C-76.33 133.01 -76.66 132.02 -77 131 C-79.26912204 134.92521514 -79.39572016 138.40692173 -79.65625 142.85546875 C-79.82640625 143.91701172 -79.82640625 143.91701172 -80 145 C-80.66 145.33 -81.32 145.66 -82 146 C-82 145.34 -82 144.68 -82 144 C-82.66 144.33 -83.32 144.66 -84 145 C-84.68729254 147.11846285 -84.68729254 147.11846285 -85.125 149.5625 C-85.37636719 150.80193359 -85.37636719 150.80193359 -85.6328125 152.06640625 C-85.81457031 153.02353516 -85.81457031 153.02353516 -86 154 C-86.99 154 -87.98 154 -89 154 C-90.91626837 158.98229776 -91.5547115 163.72684667 -92 169 C-93.32 168.67 -94.64 168.34 -96 168 C-96.99 174.435 -96.99 174.435 -98 181 C-98.33 181 -98.66 181 -99 181 C-101.05795058 174.31166063 -99.74916632 169.49083576 -96.5625 163.4375 C-95.43423833 161.33498937 -94.29368049 159.23987187 -93.14501953 157.1484375 C-91.27938968 153.64789534 -89.65084637 150.04289587 -88 146.4375 C-85.53008793 141.11560663 -82.93297019 135.90122131 -80.125 130.75 C-76.39272847 123.89824557 -73.03979393 116.88985179 -69.71362305 109.83349609 C-67.18750275 104.47876095 -64.60912667 99.15857092 -61.9375 93.875 C-59.03292242 88.12513688 -56.24200525 82.32909676 -53.5 76.5 C-49.77692978 68.59006683 -45.92399973 60.75539818 -41.98388672 52.95166016 C-40.65017717 50.30608345 -39.32548456 47.6560513 -38.00244141 45.00512695 C-37.33648968 43.67306132 -36.66820985 42.34215694 -35.99755859 41.01245117 C-34.29265035 37.62632551 -32.63080583 34.22816787 -31.03515625 30.7890625 C-25.65360019 19.33357865 -14.34990987 0 0 0 Z " fill="#090507" transform="translate(441,180)"/>
<path d="M0 0 C1.06671952 3.20015856 0.94845472 4.88544294 0.5625 8.1875 C0.46066406 9.08855469 0.35882813 9.98960937 0.25390625 10.91796875 C0.17011719 11.60503906 0.08632813 12.29210937 0 13 C-0.66 12.34 -1.32 11.68 -2 11 C-4.02055843 15.39251833 -5.40895235 19.15340923 -6 24 C-6.66 24 -7.32 24 -8 24 C-8.22042969 24.93005859 -8.22042969 24.93005859 -8.4453125 25.87890625 C-9.92192885 31.70899496 -11.83077817 37.11071506 -14.1875 42.625 C-16.59618078 48.3186379 -17.65130608 52.81259224 -17 59 C-18.32 59 -19.64 59 -21 59 C-21.37125 60.258125 -21.7425 61.51625 -22.125 62.8125 C-22.33382813 63.52019531 -22.54265625 64.22789062 -22.7578125 64.95703125 C-23.26093748 67.31145413 -23.26093748 67.31145413 -21 70 C-20.34 70.33 -19.68 70.66 -19 71 C-18.731875 69.865625 -18.46375 68.73125 -18.1875 67.5625 C-17.795625 66.386875 -17.40375 65.21125 -17 64 C-15.515 63.505 -15.515 63.505 -14 63 C-12.07366761 60.76180447 -12.07366761 60.76180447 -10.1875 58 C-9.48882812 57.01128906 -8.79015625 56.02257812 -8.0703125 55.00390625 C-3.20513357 48.20361657 -3.20513357 48.20361657 1 41 C1.7425 40.278125 2.485 39.55625 3.25 38.8125 C7.497787 34.46817239 11.42920206 30.27877735 12 24 C12.99 24 13.98 24 15 24 C15.391875 23.071875 15.78375 22.14375 16.1875 21.1875 C18.12822616 17.77449882 19.53018941 16.68801596 23 15 C22.61624271 20.3019099 19.66829015 23.30014178 16.375 27.1875 C12.26730913 32.10113022 8.46839738 37.1160496 4.82958984 42.38793945 C1.70869871 46.84355918 -1.59070422 51.16421031 -4.875 55.5 C-6.20719341 57.25930886 -7.53799655 59.01967163 -8.8671875 60.78125 C-9.73512939 61.9269043 -9.73512939 61.9269043 -10.62060547 63.09570312 C-12.04336015 64.95129009 -12.04336015 64.95129009 -13 67 C-13.66 67 -14.32 67 -15 67 C-15.2578125 67.73347656 -15.515625 68.46695313 -15.78125 69.22265625 C-17.0483863 72.11026493 -18.46954089 74.03673175 -20.5 76.4375 C-24.48647188 81.27091462 -28.11334879 86.29118308 -31.67382812 91.44116211 C-34.79013188 95.89506594 -34.79013188 95.89506594 -37 97 C-35.40383938 88.1765034 -32.21181174 79.98273291 -29.0625 71.625 C-28.47906718 70.06478542 -27.89565269 68.50456398 -27.31225586 66.94433594 C-22.49578255 54.11431393 -17.38994637 41.41615171 -12.14111328 28.75683594 C-8.48733785 19.92961468 -4.87881453 11.11624601 -2 2 C-1.34 2 -0.68 2 0 2 C0 1.34 0 0.68 0 0 Z " fill="#0A0608" transform="translate(471,372)"/>
<path d="M0 0 C0.495 1.485 0.495 1.485 1 3 C-0.37109375 5.09375 -0.37109375 5.09375 -2.4375 7.5 C-5.40013297 11.04898741 -8.23880672 14.62076943 -10.9375 18.375 C-17.128899 26.96541466 -23.47343302 35.41408452 -30.1171875 43.66015625 C-35.21948551 50.00097887 -40.12378239 56.484869 -45 63 C-46.53699809 65.04980738 -48.07443503 67.09928394 -49.61230469 69.1484375 C-50.8304698 70.77380067 -52.04447927 72.40227666 -53.2578125 74.03125 C-53.87398437 74.8459375 -54.49015625 75.660625 -55.125 76.5 C-55.64320313 77.1909375 -56.16140625 77.881875 -56.6953125 78.59375 C-57.34113281 79.28984375 -57.34113281 79.28984375 -58 80 C-58.66 80 -59.32 80 -60 80 C-60.37511719 80.87398437 -60.37511719 80.87398437 -60.7578125 81.765625 C-66.56242931 92.20663386 -81.21454996 99.86013029 -92 104 C-90.9476538 105.28126496 -90.9476538 105.28126496 -88.55761719 105.06933594 C-84.95442714 104.97545228 -81.35230137 104.87403907 -77.75 104.75 C-75.79042358 104.68329102 -75.79042358 104.68329102 -73.79125977 104.61523438 C-62.24164828 104.14604245 -50.21289568 103.47553981 -38.98657227 100.45898438 C-35.99545842 99.76790732 -33.05540822 99.94124215 -30 100 C-33 102 -33 102 -36 102 C-36 102.99 -36 103.98 -36 105 C-56.88032048 107.9305713 -77.97085196 107.18949118 -99 107 C-99.33 106.01 -99.66 105.02 -100 104 C-98.7934375 103.5978125 -98.7934375 103.5978125 -97.5625 103.1875 C-96.2940625 102.5996875 -96.2940625 102.5996875 -95 102 C-94.67 101.01 -94.34 100.02 -94 99 C-93.38511719 98.95101562 -92.77023437 98.90203125 -92.13671875 98.8515625 C-90.92435547 98.73941406 -90.92435547 98.73941406 -89.6875 98.625 C-88.48673828 98.52058594 -88.48673828 98.52058594 -87.26171875 98.4140625 C-84.72775559 98.10435574 -84.72775559 98.10435574 -82 96 C-82 95.01 -82 94.02 -82 93 C-81.27425781 93.0721875 -80.54851563 93.144375 -79.80078125 93.21875 C-71.96036213 92.60638812 -64.0798388 82.62168827 -59 77 C-55.90100262 73.28428673 -53.45068021 69.9574823 -53 65 C-52.01 65 -51.02 65 -50 65 C-49.566875 64.05125 -49.13375 63.1025 -48.6875 62.125 C-47 59 -47 59 -44 57 C-43.67 56.01 -43.34 55.02 -43 54 C-41.33333333 52.33333333 -39.66666667 50.66666667 -38 49 C-38 48.34 -38 47.68 -38 47 C-36.34614767 45.65080468 -34.678298 44.31866272 -33 43 C-31.0549 40.08235 -30.54723683 38.37462715 -30 35 C-29.01 35 -28.02 35 -27 35 C-25.46839316 33.54468131 -25.46839316 33.54468131 -24.07421875 31.5625 C-23.52443359 30.83160156 -22.97464844 30.10070312 -22.40820312 29.34765625 C-21.84037109 28.57292969 -21.27253906 27.79820312 -20.6875 27 C-19.8531543 25.88431641 -19.8531543 25.88431641 -19.00195312 24.74609375 C-17.88339114 23.24860098 -16.76993488 21.74728087 -15.66162109 20.2421875 C-14.54691071 18.738 -13.41939746 17.24322257 -12.27978516 15.7578125 C-11.74015137 15.05398438 -11.20051758 14.35015625 -10.64453125 13.625 C-10.15960205 12.99851562 -9.67467285 12.37203125 -9.17504883 11.7265625 C-7.81353909 9.89450527 -7.81353909 9.89450527 -7 7 C-5.37550757 5.29220027 -3.70779973 3.62449243 -2 2 C-1.34 1.34 -0.68 0.68 0 0 Z " fill="#090406" transform="translate(641,285)"/>
<path d="M0 0 C0.59401611 0.20431641 1.18803223 0.40863281 1.80004883 0.61914062 C1.14004883 1.05226562 0.48004883 1.48539063 -0.19995117 1.93164062 C-0.85995117 2.48851562 -1.51995117 3.04539063 -2.19995117 3.61914062 C-2.19995117 4.60914063 -2.19995117 5.59914062 -2.19995117 6.61914062 C-3.84995117 6.94914063 -5.49995117 7.27914062 -7.19995117 7.61914062 C-7.52995117 8.93914062 -7.85995117 10.25914062 -8.19995117 11.61914062 C-9.51995117 11.61914062 -10.83995117 11.61914062 -12.19995117 11.61914062 C-13.90676064 13.24467346 -15.57655312 14.91030057 -17.19995117 16.61914062 C-17.85995117 16.61914062 -18.51995117 16.61914062 -19.19995117 16.61914062 C-19.52995117 18.92914063 -19.85995117 21.23914063 -20.19995117 23.61914062 C-20.85995117 23.28914063 -21.51995117 22.95914063 -22.19995117 22.61914062 C-28.74205221 28.36825972 -34.2176465 35.84302385 -35.19995117 44.61914062 C-35.85995117 44.61914062 -36.51995117 44.61914062 -37.19995117 44.61914062 C-36.86995117 46.92914063 -36.53995117 49.23914063 -36.19995117 51.61914062 C-37.18995117 52.11414063 -37.18995117 52.11414063 -38.19995117 52.61914062 C-38.52995117 51.95914063 -38.85995117 51.29914063 -39.19995117 50.61914062 C-42.49905895 58.36069777 -42.66240321 65.6870409 -42.59106445 73.95776367 C-42.57495728 76.18079752 -42.59098818 78.40202073 -42.61010742 80.625 C-42.61916033 87.80486263 -42.45913302 94.05766607 -39.19995117 100.61914062 C-38.20995117 100.12414062 -38.20995117 100.12414062 -37.19995117 99.61914062 C-37.15870117 100.46476562 -37.11745117 101.31039062 -37.07495117 102.18164062 C-35.43658851 108.61806537 -30.52282831 112.84501754 -25.14526367 116.48632812 C-21.64454113 118.5249015 -17.94887573 120.0974683 -14.19995117 121.61914062 C-14.85995117 120.29914063 -15.51995117 118.97914063 -16.19995117 117.61914062 C-15.53995117 117.61914062 -14.87995117 117.61914062 -14.19995117 117.61914062 C-13.86995117 115.63914062 -13.53995117 113.65914063 -13.19995117 111.61914062 C-12.20995117 111.61914062 -11.21995117 111.61914062 -10.19995117 111.61914062 C-9.31658281 114.08590512 -9.06871057 115.25773435 -9.97729492 117.75976562 C-10.36014648 118.45585937 -10.74299805 119.15195312 -11.13745117 119.86914062 C-11.70786133 120.92875 -11.70786133 120.92875 -12.28979492 122.00976562 C-12.59014648 122.54085937 -12.89049805 123.07195312 -13.19995117 123.61914062 C-23.09228659 122.44497618 -31.3069424 116.60948817 -37.51635742 109.00585938 C-47.34215079 95.07648641 -48.38399822 77.56527376 -45.79711914 61.046875 C-43.77232475 51.6692902 -39.9377418 42.93520996 -35.19995117 34.61914062 C-34.73073242 33.79027344 -34.26151367 32.96140625 -33.77807617 32.10742188 C-32.66364806 30.22928274 -31.44304069 28.41471437 -30.19995117 26.61914062 C-29.53995117 26.61914062 -28.87995117 26.61914062 -28.19995117 26.61914062 C-27.94560303 25.87728516 -27.69125488 25.13542969 -27.42919922 24.37109375 C-26.12661062 21.45495102 -24.78362785 19.82932263 -22.53198242 17.58789062 C-21.80301758 16.85957031 -21.07405273 16.13125 -20.32299805 15.38085938 C-19.56051758 14.63449219 -18.79803711 13.888125 -18.01245117 13.11914062 C-17.26930664 12.37277344 -16.52616211 11.62640625 -15.76049805 10.85742188 C-4.08355115 -0.70695148 -4.08355115 -0.70695148 0 0 Z " fill="#080506" transform="translate(380.199951171875,139.380859375)"/>
<path d="M0 0 C5.88969302 -0.19801127 11.77744404 -0.34304089 17.66967773 -0.43945312 C19.67295072 -0.47964499 21.6759896 -0.53421105 23.6784668 -0.60351562 C26.56097078 -0.70076706 29.44037183 -0.74596533 32.32421875 -0.78125 C33.66355721 -0.84318542 33.66355721 -0.84318542 35.029953 -0.90637207 C41.08045191 -0.9107219 41.08045191 -0.9107219 43.74551392 1.72875977 C45.13288648 3.80980372 46.22559386 5.62044901 47 8 C46.67 8.99 46.34 9.98 46 11 C45.27925293 9.53989502 45.27925293 9.53989502 44.54394531 8.05029297 C41.85225144 4.73365465 41.85225144 4.73365465 38.05761719 4.22705078 C36.47119292 4.18623156 34.88372446 4.17750909 33.296875 4.1953125 C32.04019012 4.17475296 32.04019012 4.17475296 30.75811768 4.15377808 C28.08820003 4.11645464 25.42014165 4.12019413 22.75 4.125 C20.9374709 4.10687471 19.12496644 4.08607254 17.3125 4.0625 C12.87468812 4.01062759 8.43809843 3.99557076 4 4 C4.99 6.31 5.98 8.62 7 11 C7.99 10.67 8.98 10.34 10 10 C10.18175781 11.04800781 10.18175781 11.04800781 10.3671875 12.1171875 C10.53476562 13.02726562 10.70234375 13.93734375 10.875 14.875 C11.11863281 16.23238281 11.11863281 16.23238281 11.3671875 17.6171875 C11.83044703 20.16505988 11.83044703 20.16505988 14 22 C14.66 22 15.32 22 16 22 C16.12375 22.94875 16.2475 23.8975 16.375 24.875 C16.71687177 28.08667191 16.71687177 28.08667191 19 30 C19.66 29.67 20.32 29.34 21 29 C21.2475 30.485 21.2475 30.485 21.5 32 C23.01329871 37.31264439 26.99381963 40.42770198 31 44 C31.65226562 44.59554687 32.30453125 45.19109375 32.9765625 45.8046875 C36.59927449 49.02807116 36.59927449 49.02807116 41 51 C44.53783683 42.2672692 44.53783683 42.2672692 45 33 C45.66 33.99 46.32 34.98 47 36 C47.66 34.35 48.32 32.7 49 31 C49.33 31 49.66 31 50 31 C49.69156849 39.79029799 46.43222587 47.03345739 43 55 C32.73825913 53.32893669 23.02296925 40.90103143 17.13574219 32.90454102 C0 9.05044972 0 9.05044972 0 0 Z " fill="#090607" transform="translate(409,322)"/>
<path d="M0 0 C0.66 0 1.32 0 2 0 C0.39827275 6.48318173 -1.99757689 12.34154324 -4.89111328 18.35058594 C-7.94542955 24.75233306 -10.69328508 31.27284361 -13.4375 37.8125 C-15.29057516 42.20879389 -17.1453766 46.60435906 -19 51 C-19.40492676 51.96228516 -19.80985352 52.92457031 -20.22705078 53.91601562 C-21.30672204 56.46987981 -22.40065813 59.01705451 -23.5 61.5625 C-23.81380615 62.31184814 -24.1276123 63.06119629 -24.45092773 63.83325195 C-25.21912504 65.59336277 -26.09978845 67.30361079 -27 69 C-28.485 69.495 -28.485 69.495 -30 70 C-29.01 64.06 -29.01 64.06 -28 58 C-27.01 58.33 -26.02 58.66 -25 59 C-24.608125 57.783125 -24.21625 56.56625 -23.8125 55.3125 C-22.47966392 51.25632098 -20.9215304 47.32900935 -19.3125 43.375 C-17.44877594 38.61524962 -16.41008396 35.07327791 -17 30 C-19.9254644 29.7763932 -19.9254644 29.7763932 -22 31 C-21.39600157 27.3923337 -19.95307523 25.40918792 -17.625 22.625 C-14.07391875 18.30837768 -10.57682825 13.95853499 -7.125 9.5625 C-6.64885254 8.95937988 -6.17270508 8.35625977 -5.68212891 7.73486328 C-3.69162132 5.20479895 -1.78674857 2.68012285 0 0 Z " fill="#0A0608" transform="translate(598,87)"/>
<path d="M0 0 C3.28164313 3.47806265 6.20563161 7.12238263 9 11 C9.99 10.505 9.99 10.505 11 10 C11.99 18.91 11.99 18.91 13 28 C14.65 26.35 16.3 24.7 18 23 C17.38271885 26.38361519 16.13020282 28.52002561 14.0625 31.25 C13.53785156 31.95640625 13.01320313 32.6628125 12.47265625 33.390625 C11.98667969 33.92171875 11.50070312 34.4528125 11 35 C10.34 35 9.68 35 9 35 C9.03480469 34.24976563 9.06960938 33.49953125 9.10546875 32.7265625 C9.38052826 22.32669331 8.00524433 14.66559424 1.20703125 6.59375 C0 5 0 5 0 3 C-0.66 2.7525 -1.32 2.505 -2 2.25 C-5 1 -5 1 -8.4375 -0.9375 C-19.19401304 -6.31513209 -31.12425926 -6.41236697 -42.875 -6.1875 C-44.2564955 -6.17239548 -45.63800734 -6.15871747 -47.01953125 -6.14648438 C-50.34678866 -6.11158307 -53.67316761 -6.06255856 -57 -6 C-41.97357188 -14.01789366 -13.02933407 -10.14066001 0 0 Z " fill="#090407" transform="translate(489,152)"/>
<path d="M0 0 C0.495 1.98 0.495 1.98 1 4 C-0.98 4.99 -0.98 4.99 -3 6 C-2.73323796 7.98491642 -2.73323796 7.98491642 -2 10 C-0.515 10.495 -0.515 10.495 1 11 C1.144375 12.03125 1.28875 13.0625 1.4375 14.125 C1.76813615 16.40271569 2.12963505 18.67698303 2.5625 20.9375 C3.81892153 29.73245068 2.26969897 38.29349274 1 47 C0.01 46.505 0.01 46.505 -1 46 C-4.61593557 51.54702838 -4.61593557 51.54702838 -5 58 C-6.32 57.34 -7.64 56.68 -9 56 C-9.43570313 56.39832031 -9.87140625 56.79664063 -10.3203125 57.20703125 C-19.08029197 65 -19.08029197 65 -24 65 C-24 65.66 -24 66.32 -24 67 C-23.34 67.33 -22.68 67.66 -22 68 C-27.445 68.495 -27.445 68.495 -33 69 C-30.4781926 65.90505455 -27.85988075 64.3536104 -24.3125 62.6875 C-14.16179625 57.76142318 -5.80659957 50.83051268 -1.90234375 39.9375 C0.62635327 30.5283948 0.453958 23.10729734 -3 14 C-3.5775 13.05125 -4.155 12.1025 -4.75 11.125 C-6 9 -6 9 -6 7 C-4.54613123 4.09226246 -2.36921743 2.18696994 0 0 Z " fill="#0A0608" transform="translate(645,316)"/>
<path d="M0 0 C0.33 0 0.66 0 1 0 C1.31211969 4.78819982 0.52202857 7.61149667 -1.75 11.8125 C-3.66647134 15.3986244 -5.46639743 18.98652197 -7.10644531 22.70581055 C-7.64026825 23.91420845 -7.64026825 23.91420845 -8.18487549 25.14701843 C-8.58836212 26.06424431 -8.58836212 26.06424431 -9 27 C-8.2277005 26.99555878 -7.455401 26.99111755 -6.65969849 26.98654175 C0.60944637 26.94650996 7.87853798 26.91603857 15.14776421 26.89637566 C18.8851783 26.88592702 22.6225015 26.8717483 26.35986328 26.84912109 C29.964905 26.82743096 33.56985917 26.81543951 37.17496109 26.81024551 C38.55211898 26.80654284 39.92927194 26.79931266 41.30639267 26.78853989 C43.23139545 26.77407665 45.15648587 26.77318352 47.08154297 26.77294922 C48.17852509 26.768508 49.2755072 26.76406677 50.4057312 26.75949097 C53 27 53 27 55 29 C51.71904825 30.09365058 49.41830216 30.08471546 45.96801758 30.02172852 C44.72695755 30.00163223 43.48589752 29.98153595 42.20722961 29.96083069 C40.85299457 29.93363448 39.49876183 29.90632364 38.14453125 29.87890625 C36.75877157 29.85459962 35.3730037 29.83075633 33.98722839 29.80735779 C30.34244437 29.74457082 26.69780575 29.67548902 23.05316162 29.60510254 C19.3330344 29.53437037 15.6128042 29.46958264 11.89257812 29.40429688 C4.59493818 29.275354 -2.70255839 29.1397619 -10 29 C-10.89097519 25.14545179 -11.14276975 23.4875906 -9.0625 20.0625 C-7.12309706 16.55024794 -6.59273866 14.07261339 -7 10 C-6.01 9.67 -5.02 9.34 -4 9 C-3.896875 8.2575 -3.79375 7.515 -3.6875 6.75 C-2.95458812 3.81835246 -1.99174829 2.24071683 0 0 Z " fill="#010101" transform="translate(536,228)"/>
<path d="M0 0 C11.5269257 1.03483622 20.73214345 9.40510383 28 18 C31.08486371 22.19088396 31.08486371 22.19088396 30.74731445 25.40917969 C29.95286003 28.16342679 28.99325465 29.7511491 27.234375 31.99609375 C26.39326172 33.08180664 26.39326172 33.08180664 25.53515625 34.18945312 C24.94605469 34.93130859 24.35695313 35.67316406 23.75 36.4375 C23.17636719 37.17548828 22.60273437 37.91347656 22.01171875 38.67382812 C18.7525762 42.84983652 15.41439145 46.95022367 12 51 C10.68 50.67 9.36 50.34 8 50 C8 48.68 8 47.36 8 46 C8.886875 45.79375 9.77375 45.5875 10.6875 45.375 C15.01007657 43.58072293 16.32850272 41.81642469 19 38 C19.35858516 36.67323492 19.7018576 35.34164079 20 34 C21.485 33.505 21.485 33.505 23 33 C24.44321366 31.47861026 24.44321366 31.47861026 25.6875 29.625 C26.12449219 29.01914063 26.56148437 28.41328125 27.01171875 27.7890625 C28.241766 25.90298328 28.241766 25.90298328 28 23 C27.34 22.67 26.68 22.34 26 22 C25.71125 21.34 25.4225 20.68 25.125 20 C24.75375 19.34 24.3825 18.68 24 18 C23.34 17.855625 22.68 17.71125 22 17.5625 C21.34 17.376875 20.68 17.19125 20 17 C19.5359375 15.7625 19.5359375 15.7625 19.0625 14.5 C18.711875 13.675 18.36125 12.85 18 12 C15.45224694 11.10613836 15.45224694 11.10613836 13 11 C13 10.01 13 9.02 13 8 C9.49461443 6.03698408 5.86648272 5.04097612 2 4 C2 3.34 2 2.68 2 2 C1.34 1.34 0.68 0.68 0 0 Z " fill="#0C0809" transform="translate(498,123)"/>
<path d="M0 0 C1.13826736 -0.00442612 1.13826736 -0.00442612 2.29953003 -0.00894165 C25.1309532 -0.02918844 25.1309532 -0.02918844 35.6875 4.3125 C36.1825 5.7975 36.1825 5.7975 36.6875 7.3125 C31.7375 7.6425 26.7875 7.9725 21.6875 8.3125 C21.1925 7.3225 21.1925 7.3225 20.6875 6.3125 C24.1525 5.8175 24.1525 5.8175 27.6875 5.3125 C18.45050785 3.60713482 9.57010846 3.03047743 0.1875 3.125 C-1.63587891 3.1259668 -1.63587891 3.1259668 -3.49609375 3.12695312 C-11.47435289 3.1652692 -19.36767735 3.59031895 -27.3125 4.3125 C-27.3125 4.9725 -27.3125 5.6325 -27.3125 6.3125 C-25.0025 6.3125 -22.6925 6.3125 -20.3125 6.3125 C-20.3125 6.6425 -20.3125 6.9725 -20.3125 7.3125 C-25.5925 7.3125 -30.8725 7.3125 -36.3125 7.3125 C-35.3125 5.3125 -35.3125 5.3125 -32.8359375 4.27734375 C-31.79695313 3.93832031 -30.75796875 3.59929687 -29.6875 3.25 C-28.66398437 2.90839844 -27.64046875 2.56679687 -26.5859375 2.21484375 C-17.88077418 -0.18478958 -8.95509129 0.03036112 0 0 Z " fill="#070405" transform="translate(457.3125,114.6875)"/>
<path d="M0 0 C0 3 0 3 -1 6 C-1.825 6.7425 -2.65 7.485 -3.5 8.25 C-6.49526051 11.54478656 -6.74303718 13.6316321 -7 18 C-8.65 18.33 -10.3 18.66 -12 19 C-12.33 20.65 -12.66 22.3 -13 24 C-14.32 24.33 -15.64 24.66 -17 25 C-17.33 26.65 -17.66 28.3 -18 30 C-18.99 30 -19.98 30 -21 30 C-21.99 31.98 -22.98 33.96 -24 36 C-24.66 36 -25.32 36 -26 36 C-26.38285156 36.85851562 -26.38285156 36.85851562 -26.7734375 37.734375 C-28.13087159 40.24173733 -29.71974104 42.1330456 -31.625 44.25 C-32.25664063 44.95640625 -32.88828125 45.6628125 -33.5390625 46.390625 C-34.02117188 46.92171875 -34.50328125 47.4528125 -35 48 C-35.76953125 46.33984375 -35.76953125 46.33984375 -36 44 C-34.26171875 41.44140625 -34.26171875 41.44140625 -31.6875 38.5625 C-30.7491517 37.48755042 -29.81301721 36.41066504 -28.87890625 35.33203125 C-28.39695801 34.7798291 -27.91500977 34.22762695 -27.41845703 33.65869141 C-25.2255532 31.09439044 -23.17623709 28.42828193 -21.125 25.75 C-20.72289307 25.22559326 -20.32078613 24.70118652 -19.90649414 24.16088867 C-17.52208904 21.03802106 -15.1751427 17.88918419 -12.84375 14.7265625 C-12.30862793 14.0037207 -11.77350586 13.28087891 -11.22216797 12.53613281 C-10.17948856 11.12528015 -9.14181138 9.71071298 -8.10986328 8.29199219 C-5.67676004 5.00019496 -3.51748591 2.21718306 0 0 Z " fill="#0F0B0D" transform="translate(606,273)"/>
<path d="M0 0 C0.495 1.485 0.495 1.485 1 3 C-10.79147207 14.23395566 -23.4362035 20.23329828 -39.9375 20.25 C-41.9590792 20.18731537 -43.98055363 20.1120186 -46 20 C-47 17 -47 17 -46.328125 15.02734375 C-45.97234375 14.33769531 -45.6165625 13.64804687 -45.25 12.9375 C-44.90453125 12.24527344 -44.5590625 11.55304688 -44.203125 10.83984375 C-43 9 -43 9 -40 7 C-41.21294604 10.72547711 -42.52812198 14.36977984 -44 18 C-40.53976538 17.55532911 -37.08229165 17.09195887 -33.625 16.625 C-32.64015625 16.49867188 -31.6553125 16.37234375 -30.640625 16.2421875 C-29.69960938 16.11328125 -28.75859375 15.984375 -27.7890625 15.8515625 C-26.91975098 15.73635254 -26.05043945 15.62114258 -25.15478516 15.50244141 C-22.80166676 15.15370801 -22.80166676 15.15370801 -21 13 C-19.01214626 12.33738209 -17.01156655 11.71170691 -15 11.125 C-12.05904999 10.02214375 -11.04932185 9.23562384 -9 7 C-8.34 6.690625 -7.68 6.38125 -7 6.0625 C-4.57578388 4.77463519 -3.572109 3.2152445 -2 1 C-1.34 0.67 -0.68 0.34 0 0 Z " fill="#090407" transform="translate(381,349)"/>
<path d="M0 0 C7.26692328 -0.0462955 14.53381488 -0.08185493 21.80085564 -0.10362434 C25.17506994 -0.11407142 28.54918352 -0.12824725 31.92333984 -0.15087891 C35.80048318 -0.17504885 39.67748277 -0.18646511 43.5546875 -0.1953125 C44.76929657 -0.20563507 45.98390564 -0.21595764 47.23532104 -0.22659302 C48.35633209 -0.22674408 49.47734314 -0.22689514 50.63232422 -0.22705078 C51.62271698 -0.231492 52.61310974 -0.23593323 53.6335144 -0.24050903 C56 0 56 0 58 2 C57.30132813 2.97582031 56.60265625 3.95164062 55.8828125 4.95703125 C54.96351652 6.24216951 54.04424707 7.52732675 53.125 8.8125 C52.66480469 9.45509766 52.20460938 10.09769531 51.73046875 10.75976562 C51.06337891 11.69272461 51.06337891 11.69272461 50.3828125 12.64453125 C49.77010498 13.50075073 49.77010498 13.50075073 49.14501953 14.37426758 C48.07137168 15.89866439 47.0342601 17.44860985 46 19 C45.34 19 44.68 19 44 19 C43.773125 19.70125 43.54625 20.4025 43.3125 21.125 C41.66158712 24.74128535 39.7091165 27.08769976 37 30 C36.34 30 35.68 30 35 30 C35.433125 29.2265625 35.433125 29.2265625 35.875 28.4375 C37.28780027 25.37643275 38.1248517 22.25055082 39 19 C39.57621094 18.94328125 40.15242187 18.8865625 40.74609375 18.828125 C44.01387151 17.62748569 45.09799391 15.58131128 47.0625 12.75 C47.73410156 11.79609375 48.40570312 10.8421875 49.09765625 9.859375 C50.80794929 7.2886676 52.41141249 4.64764585 54 2 C36.18 1.67 18.36 1.34 0 1 C0 0.67 0 0.34 0 0 Z " fill="#110B0F" transform="translate(537,254)"/>
<path d="M0 0 C2.78408813 -0.32279968 2.78408813 -0.32279968 6.37744141 -0.2487793 C7.35811333 -0.23480606 7.35811333 -0.23480606 8.3585968 -0.22055054 C10.52344081 -0.18612551 12.68717858 -0.13024461 14.8515625 -0.07421875 C16.35083652 -0.04619172 17.85013606 -0.01950066 19.34945679 0.00590515 C23.29865528 0.07642568 27.24724566 0.16513264 31.19598389 0.25756836 C35.22419634 0.34866546 39.25271858 0.42264645 43.28125 0.49804688 C51.18790535 0.64856704 59.09400024 0.81829179 67 1 C66.67 1.66 66.34 2.32 66 3 C43.56 3 21.12 3 -2 3 C-1.34 2.01 -0.68 1.02 0 0 Z " fill="#000000" transform="translate(430,302)"/>
<path d="M0 0 C0.33 0.66 0.66 1.32 1 2 C0.03125 4.29296875 0.03125 4.29296875 -1.5 7.1875 C-4.07417045 12.16060394 -6.52193594 17.16847325 -8.875 22.25 C-9.18501953 22.91797607 -9.49503906 23.58595215 -9.81445312 24.27416992 C-10.54439872 25.84878451 -11.27241876 27.42429152 -12 29 C-12.66 29 -13.32 29 -14 29 C-14 29.66 -14 30.32 -14 31 C-14.66 30.67 -15.32 30.34 -16 30 C-15.59007812 29.24976563 -15.18015625 28.49953125 -14.7578125 27.7265625 C-11.32026749 21.19687175 -8.94114223 15.33441879 -8 8 C-7.01 8.33 -6.02 8.66 -5 9 C-4.34 7.02 -3.68 5.04 -3 3 C-8.445 3.495 -8.445 3.495 -14 4 C-14 4.33 -14 4.66 -14 5 C-16.64 5 -19.28 5 -22 5 C-21.67 4.34 -21.34 3.68 -21 3 C-20.34 3 -19.68 3 -19 3 C-19 2.34 -19 1.68 -19 1 C-12.62641289 0.03794912 -6.44070471 -0.10655578 0 0 Z " fill="#0B0709" transform="translate(468,175)"/>
<path d="M0 0 C0.33 1.32 0.66 2.64 1 4 C0.34 4 -0.32 4 -1 4 C-1.40992188 4.85851562 -1.40992188 4.85851562 -1.828125 5.734375 C-5.29484655 12.43670333 -9.93484933 19.4008726 -15 25 C-15.66 25 -16.32 25 -17 25 C-17.2475 25.71542969 -17.495 26.43085938 -17.75 27.16796875 C-19.13863595 30.31409706 -20.84463946 32.63810963 -23 35.3125 C-23.70125 36.19550781 -24.4025 37.07851563 -25.125 37.98828125 C-25.74375 38.65214844 -26.3625 39.31601562 -27 40 C-27.66 40 -28.32 40 -29 40 C-28.34 37.03 -27.68 34.06 -27 31 C-26.01 31 -25.02 31 -24 31 C-21.95550221 29.18333091 -21.95550221 29.18333091 -21.125 27.125 C-20 25 -20 25 -18.0625 23.1875 C-15.7430421 20.98727699 -15.7430421 20.98727699 -14.5 17.375 C-13 14 -13 14 -10.8125 12.5625 C-10.214375 12.376875 -9.61625 12.19125 -9 12 C-9 11.34 -9 10.68 -9 10 C-8.360625 9.38125 -7.72125 8.7625 -7.0625 8.125 C-4.85963929 6.21935294 -4.85963929 6.21935294 -4.5 3.875 C-4 2 -4 2 -1.9375 0.75 C-1.298125 0.5025 -0.65875 0.255 0 0 Z " fill="#0E090B" transform="translate(545,318)"/>
<path d="M0 0 C1.32 0.33 2.64 0.66 4 1 C3.50244779 6.3901489 2.06563442 10.46970213 -0.5 15.25 C-1.22647847 16.64191674 -1.95032048 18.03521188 -2.671875 19.4296875 C-3.05150391 20.1628418 -3.43113281 20.89599609 -3.82226562 21.65136719 C-5.07107455 24.14173656 -6.23845844 26.65885448 -7.390625 29.1953125 C-7.98133789 30.48840332 -7.98133789 30.48840332 -8.58398438 31.80761719 C-9.34993383 33.49411729 -10.10675372 35.18479938 -10.85351562 36.87988281 C-11.20607422 37.64913086 -11.55863281 38.41837891 -11.921875 39.2109375 C-12.22706055 39.89462402 -12.53224609 40.57831055 -12.84667969 41.28271484 C-14 43 -14 43 -18 45 C-17.67 41.7 -17.34 38.4 -17 35 C-16.34 35.99 -15.68 36.98 -15 38 C-12.7312999 33.27354147 -11.87669299 30.30220122 -12 25 C-11.34 24.34 -10.68 23.68 -10 23 C-9.67 23.66 -9.34 24.32 -9 25 C-4.5156799 16.78673993 -0.94686039 9.46860389 0 0 Z " fill="#0C0809" transform="translate(413,280)"/>
<path d="M0 0 C0.33 0.99 0.66 1.98 1 3 C-0.68740236 5.58714833 -2.40642044 7.95681397 -4.3125 10.375 C-4.85922363 11.08527344 -5.40594727 11.79554688 -5.96923828 12.52734375 C-7.63753807 14.6917292 -9.31857012 16.84580867 -11 19 C-12.37608807 20.78591798 -13.74808787 22.57490426 -15.11938477 24.36450195 C-16.34552985 25.96161373 -17.57893021 27.55314714 -18.8125 29.14453125 C-21.16541044 32.21591971 -23.43386662 35.33931199 -25.6484375 38.51171875 C-27.24661247 40.27155882 -28.83275777 41.0639358 -31 42 C-30.649375 41.21625 -30.29875 40.4325 -29.9375 39.625 C-29.628125 38.75875 -29.31875 37.8925 -29 37 C-29.33 36.34 -29.66 35.68 -30 35 C-29.195625 34.7525 -28.39125 34.505 -27.5625 34.25 C-24.828919 33.27761141 -24.828919 33.27761141 -24.1875 30.875 C-24.125625 30.25625 -24.06375 29.6375 -24 29 C-23.01 29 -22.02 29 -21 29 C-20.72293213 28.41210693 -20.44586426 27.82421387 -20.16040039 27.21850586 C-19.06343288 25.12127384 -17.87615234 23.37418045 -16.43359375 21.50390625 C-15.94826172 20.86259766 -15.46292969 20.22128906 -14.96289062 19.56054688 C-13.94640381 18.22909231 -12.92556327 16.90095025 -11.90039062 15.57617188 C-9.28703268 12.10677391 -7.35353479 9.4752331 -7 5 C-6.401875 4.9175 -5.80375 4.835 -5.1875 4.75 C-2.4033704 3.79544128 -1.56688858 2.42867729 0 0 Z " fill="#0B0507" transform="translate(676,239)"/>
<path d="M0 0 C1.231394 2.46278801 1.07159196 4.2795055 1 7 C0.030625 7.433125 -0.93875 7.86625 -1.9375 8.3125 C-5.27731765 9.7014861 -5.27731765 9.7014861 -6 13 C-6.598125 13.28875 -7.19625 13.5775 -7.8125 13.875 C-11.68079694 15.86440986 -13.65012391 18.95037173 -15 23 C-15.66 23 -16.32 23 -17 23 C-17.2475 23.9075 -17.495 24.815 -17.75 25.75 C-19.05849201 29.15207924 -20.47935474 30.47935474 -23 33 C-23 34.32 -23 35.64 -23 37 C-25 36 -25 36 -27 34 C-26.34 32.35 -25.68 30.7 -25 29 C-24.34 29 -23.68 29 -23 29 C-22.72833008 28.41968018 -22.45666016 27.83936035 -22.17675781 27.24145508 C-21.00512633 25.00976449 -19.70424649 23.13482562 -18.171875 21.13671875 C-17.34236328 20.05293945 -17.34236328 20.05293945 -16.49609375 18.94726562 C-15.91988281 18.20154297 -15.34367188 17.45582031 -14.75 16.6875 C-14.18925781 15.95337891 -13.62851562 15.21925781 -13.05078125 14.46289062 C-3.14606223 1.57303111 -3.14606223 1.57303111 0 0 Z " fill="#0B0709" transform="translate(564,132)"/>
<path d="M0 0 C-3 2 -3 2 -6 2 C-6 2.99 -6 3.98 -6 5 C-24.39208897 7.55798019 -42.51581153 6.81907342 -61 6 C-61 5.67 -61 5.34 -61 5 C-60.23147705 4.98541748 -59.4629541 4.97083496 -58.67114258 4.95581055 C-33.61020244 4.68643916 -33.61020244 4.68643916 -8.98657227 0.45898438 C-5.99545842 -0.23209268 -3.05540822 -0.05875785 0 0 Z " fill="#0D080B" transform="translate(611,385)"/>
<path d="M0 0 C0.33 0.99 0.66 1.98 1 3 C-0.328125 5.56640625 -0.328125 5.56640625 -2.25 8.5625 C-9.33873184 20.43824398 -9.64281736 31.44284658 -10 45 C-15.61479194 36.57781209 -12.4333024 24.44084308 -11 15 C-10.34 15 -9.68 15 -9 15 C-8.60167969 14.25234375 -8.20335937 13.5046875 -7.79296875 12.734375 C-7.26316406 11.74953125 -6.73335938 10.7646875 -6.1875 9.75 C-5.40439453 8.28820312 -5.40439453 8.28820312 -4.60546875 6.796875 C-3.21034812 4.36644588 -1.73804039 2.19212301 0 0 Z " fill="#0F090A" transform="translate(378,177)"/>
<path d="M0 0 C1.06671952 3.20015856 0.94845472 4.88544294 0.5625 8.1875 C0.46066406 9.08855469 0.35882813 9.98960937 0.25390625 10.91796875 C0.17011719 11.60503906 0.08632813 12.29210937 0 13 C-0.66 12.34 -1.32 11.68 -2 11 C-4.02055843 15.39251833 -5.40895235 19.15340923 -6 24 C-6.66 24 -7.32 24 -8 24 C-8.18175781 24.73605469 -8.36351562 25.47210938 -8.55078125 26.23046875 C-11.04745167 35.92267135 -11.04745167 35.92267135 -14 40 C-15.42481643 36.22445944 -14.53886609 34.1012371 -13.015625 30.45703125 C-12.57476562 29.38259766 -12.13390625 28.30816406 -11.6796875 27.20117188 C-10.97199219 25.5237793 -10.97199219 25.5237793 -10.25 23.8125 C-9.33611281 21.61168409 -8.42461051 19.40987618 -7.515625 17.20703125 C-7.08185547 16.15596191 -6.64808594 15.10489258 -6.20117188 14.02197266 C-4.62679042 10.06105931 -3.28697891 6.06256344 -2 2 C-1.34 2 -0.68 2 0 2 C0 1.34 0 0.68 0 0 Z " fill="#080407" transform="translate(471,372)"/>
<path d="M0 0 C0.66 0.99 1.32 1.98 2 3 C2.99 2.01 3.98 1.02 5 0 C4.5053542 6.36964947 2.27140476 11.38500463 -0.4375 17.125 C-1.2494827 18.87724071 -2.0607048 20.62983413 -2.87109375 22.3828125 C-3.23130615 23.14996582 -3.59151855 23.91711914 -3.96264648 24.70751953 C-5.05052686 27.11166092 -6.03697721 29.54349186 -7 32 C-7.66 32 -8.32 32 -9 32 C-9.66 33.32 -10.32 34.64 -11 36 C-11.33 33.03 -11.66 30.06 -12 27 C-10.515 27.99 -10.515 27.99 -9 29 C-8.49339844 27.77023438 -8.49339844 27.77023438 -7.9765625 26.515625 C-7.53054688 25.43796875 -7.08453125 24.3603125 -6.625 23.25 C-6.18414063 22.18265625 -5.74328125 21.1153125 -5.2890625 20.015625 C-4.26692415 17.62444074 -3.19786405 15.30616817 -2 13 C-2.66 12.67 -3.32 12.34 -4 12 C-3.01 12 -2.02 12 -1 12 C-0.67 8.04 -0.34 4.08 0 0 Z " fill="#0B0707" transform="translate(553,181)"/>
<path d="M0 0 C4 0 4 0 5.8515625 1.71484375 C6.43679688 2.44832031 7.02203125 3.18179688 7.625 3.9375 C9.93623974 6.93259705 9.93623974 6.93259705 13 9 C12.36511918 13.92032635 10.54680948 18.74946279 8 23 C7.01 23.33 6.02 23.66 5 24 C5.66 22.02 6.32 20.04 7 18 C6.34 17.67 5.68 17.34 5 17 C5 16.34 5 15.68 5 15 C6.32 14.67 7.64 14.34 9 14 C9 12.68 9 11.36 9 10 C7.68 9.67 6.36 9.34 5 9 C4.67 7.68 4.34 6.36 4 5 C2.68 4.67 1.36 4.34 0 4 C0 2.68 0 1.36 0 0 Z " fill="#090607" transform="translate(367,224)"/>
<path d="M0 0 C0 1.65 0 3.3 0 5 C-0.66 4.67 -1.32 4.34 -2 4 C-2.24234375 4.55429688 -2.4846875 5.10859375 -2.734375 5.6796875 C-3.06953125 6.40414062 -3.4046875 7.12859375 -3.75 7.875 C-4.07484375 8.59429687 -4.3996875 9.31359375 -4.734375 10.0546875 C-6.25374045 12.39000847 -7.53454835 12.78567307 -10 14 C-11.97350244 16.15887254 -11.97350244 16.15887254 -13.75 18.625 C-14.36359375 19.44226563 -14.9771875 20.25953125 -15.609375 21.1015625 C-16.06828125 21.72804688 -16.5271875 22.35453125 -17 23 C-17.33 22.01 -17.66 21.02 -18 20 C-16.8125 18.0546875 -16.8125 18.0546875 -15 15.875 C-14.35546875 15.08738281 -13.7109375 14.29976563 -13.046875 13.48828125 C-12.37140625 12.66714844 -11.6959375 11.84601563 -11 11 C-9.18550664 8.62124347 -7.38060501 6.23552112 -5.578125 3.84765625 C-2.29175476 0 -2.29175476 0 0 0 Z " fill="#0D0A0B" transform="translate(628,246)"/>
<path d="M0 0 C0.33 0.99 0.66 1.98 1 3 C-0.30078125 5.2421875 -0.30078125 5.2421875 -2.3125 7.875 C-3.04339844 8.83792969 -3.77429688 9.80085938 -4.52734375 10.79296875 C-4.92550293 11.30778809 -5.32366211 11.82260742 -5.73388672 12.35302734 C-7.07159824 14.0931357 -8.38270959 15.85126673 -9.69140625 17.61328125 C-10.58526098 18.80519514 -11.47978081 19.99661058 -12.375 21.1875 C-13.01755737 22.0525415 -13.01755737 22.0525415 -13.6730957 22.93505859 C-14.73438605 24.32769821 -15.86189927 25.66939524 -17 27 C-17.66 27 -18.32 27 -19 27 C-17.25009673 21.87855536 -14.24682915 18.4741268 -10.77734375 14.40234375 C-8.89077399 12.17322705 -8.89077399 12.17322705 -8.44140625 9.75390625 C-8.29574219 9.17511719 -8.15007812 8.59632813 -8 8 C-7.01 7.67 -6.02 7.34 -5 7 C-3.56051882 5.37117603 -3.56051882 5.37117603 -2.3125 3.4375 C-1.87550781 2.79683594 -1.43851563 2.15617187 -0.98828125 1.49609375 C-0.66214844 1.00238281 -0.33601562 0.50867188 0 0 Z " fill="#0E090B" transform="translate(514,359)"/>
<path d="M0 0 C-2.88145752 3.03666484 -5.89292573 5.46630412 -9.3125 7.875 C-13.75472961 11.05482656 -17.91847168 14.37197483 -22 18 C-22 15 -22 15 -20.7578125 13.39453125 C-20.21898437 12.87246094 -19.68015625 12.35039062 -19.125 11.8125 C-18.59132813 11.28269531 -18.05765625 10.75289062 -17.5078125 10.20703125 C-16 9 -16 9 -14 9 C-14 8.01 -14 7.02 -14 6 C-12.02 5.01 -10.04 4.02 -8 3 C-8.33 2.01 -8.66 1.02 -9 0 C-2.25 -1.125 -2.25 -1.125 0 0 Z " fill="#0D0909" transform="translate(404,157)"/>
<path d="M0 0 C0.33 0 0.66 0 1 0 C0.96857608 8.40589869 -0.76994202 13.45915054 -6 20 C-6.7425 21.010625 -7.485 22.02125 -8.25 23.0625 C-8.8275 23.701875 -9.405 24.34125 -10 25 C-10.66 25 -11.32 25 -12 25 C-11.690625 24.29875 -11.38125 23.5975 -11.0625 22.875 C-9.96697322 19.91063343 -9.43577008 17.12301892 -9 14 C-7.68 14 -6.36 14 -5 14 C-4.70996094 13.11248047 -4.70996094 13.11248047 -4.4140625 12.20703125 C-3.05585281 8.0853355 -1.67949415 4.0049476 0 0 Z " fill="#050103" transform="translate(690,213)"/>
<path d="M0 0 C7.11278803 -0.56400962 13.69281624 0.3251665 20.625 1.8125 C21.43114746 1.97782227 22.23729492 2.14314453 23.06787109 2.31347656 C25.3515625 2.83203125 25.3515625 2.83203125 29 4 C29.33 4.99 29.66 5.98 30 7 C25.05 7.33 20.1 7.66 15 8 C14.67 7.34 14.34 6.68 14 6 C17.465 5.505 17.465 5.505 21 5 C19.01432292 4.8046875 17.02864583 4.609375 15.04296875 4.4140625 C13 4 13 4 10 2 C7.49103314 1.54398739 7.49103314 1.54398739 4.8125 1.375 C3.91144531 1.30023438 3.01039063 1.22546875 2.08203125 1.1484375 C1.39496094 1.09945312 0.70789063 1.05046875 0 1 C0 0.67 0 0.34 0 0 Z " fill="#0E0A0B" transform="translate(464,115)"/>
<path d="M0 0 C0.33 0.99 0.66 1.98 1 3 C-0.40625 5.3828125 -0.40625 5.3828125 -2.5 8.125 C-3.2321875 9.09308594 -3.964375 10.06117188 -4.71875 11.05859375 C-5.4715625 12.02925781 -6.224375 12.99992187 -7 14 C-7.6909375 14.89847656 -8.381875 15.79695313 -9.09375 16.72265625 C-10.71863337 18.82368372 -12.3533774 20.91599327 -14 23 C-14.99 22.67 -15.98 22.34 -17 22 C-16.21625 21.0925 -15.4325 20.185 -14.625 19.25 C-13.12995058 17.46599145 -11.98243351 15.96486703 -10.9375 13.875 C-9.70849422 11.41698843 -7.94762567 9.94762567 -6 8 C-3.94119664 5.37603493 -1.96314642 2.69605441 0 0 Z " fill="#0F090C" transform="translate(570,285)"/>
<path d="M0 0 C1.32 1.32 2.64 2.64 4 4 C3.67 4.99 3.34 5.98 3 7 C3.66 7.33 4.32 7.66 5 8 C3.02 10.64 1.04 13.28 -1 16 C-1.33 15.01 -1.66 14.02 -2 13 C-2.33 12.67 -2.66 12.34 -3 12 C-4 10 -4 10 -3.22265625 7.6171875 C-2.83980469 6.71226562 -2.45695312 5.80734375 -2.0625 4.875 C-1.68222656 3.96492188 -1.30195313 3.05484375 -0.91015625 2.1171875 C-0.60980469 1.41851562 -0.30945313 0.71984375 0 0 Z " fill="#0E0C0C" transform="translate(444,439)"/>
<path d="M0 0 C0 9.375 0 9.375 -1 14 C-1.66 13.67 -2.32 13.34 -3 13 C-3.66 13.66 -4.32 14.32 -5 15 C-6.60122856 6.03660097 -6.60122856 6.03660097 -4.1875 1.875 C-2 0 -2 0 0 0 Z " fill="#151511" transform="translate(588,106)"/>
<path d="M0 0 C1 2 1 2 0.6171875 3.8125 C-1.42181992 9.82220609 -4.03760752 15.39135969 -7 21 C-7.66 21 -8.32 21 -9 21 C-8.55868372 17.9990493 -7.91404308 15.83524924 -6.5 13.125 C-4.80025181 10.01575529 -4.80025181 10.01575529 -4.5625 6.3125 C-4 3 -4 3 -1.9375 1.0625 C-0.9784375 0.5365625 -0.9784375 0.5365625 0 0 Z " fill="#110B0D" transform="translate(440,231)"/>
<path d="M0 0 C0.99 0 1.98 0 3 0 C3.80784795 2.33429153 4.11635505 3.62242947 3.37915039 6.01464844 C3.03875732 6.7059082 2.69836426 7.39716797 2.34765625 8.109375 C1.98349609 8.86347656 1.61933594 9.61757812 1.24414062 10.39453125 C0.65922852 11.56048828 0.65922852 11.56048828 0.0625 12.75 C-0.51661133 13.93916016 -0.51661133 13.93916016 -1.10742188 15.15234375 C-2.06107367 17.10674125 -3.0291649 19.05408106 -4 21 C-4.66 21 -5.32 21 -6 21 C-5.55349797 17.53960927 -4.47443406 14.75015915 -3 11.625 C-1.17269152 7.67245232 -0.36812355 4.32545174 0 0 Z " fill="#0D0809" transform="translate(448,208)"/>
<path d="M0 0 C0.33 0 0.66 0 1 0 C1.33516593 4.88905081 0.43895554 7.77227143 -1.875 12.0625 C-3.79225735 15.66083083 -5.55753291 19.18376426 -7 23 C-7.66 22.01 -8.32 21.02 -9 20 C-8.67 19.46375 -8.34 18.9275 -8 18.375 C-6.77300796 15.4608939 -6.85766714 13.13132292 -7 10 C-6.01 9.67 -5.02 9.34 -4 9 C-3.896875 8.2575 -3.79375 7.515 -3.6875 6.75 C-2.95458812 3.81835246 -1.99174829 2.24071683 0 0 Z " fill="#0B0708" transform="translate(536,228)"/>
<path d="M0 0 C0.33 0 0.66 0 1 0 C0.55397709 6.69034366 -2.07345542 12.02812122 -5 18 C-5.99 18 -6.98 18 -8 18 C-7.67 15.03 -7.34 12.06 -7 9 C-6.34 9.66 -5.68 10.32 -5 11 C-3.35 7.37 -1.7 3.74 0 0 Z " fill="#0A0507" transform="translate(566,160)"/>
<path d="M0 0 C5.75 3.75 5.75 3.75 8 6 C7.70765453 10.38518205 6.52691125 13.42020907 4 17 C3.67 17 3.34 17 3 17 C3 14.36 3 11.72 3 9 C3.99 9 4.98 9 6 9 C5.34 8.34 4.68 7.68 4 7 C0 2.29411765 0 2.29411765 0 0 Z " fill="#0A0708" transform="translate(457,334)"/>
<path d="M0 0 C0.33 0 0.66 0 1 0 C0.71150838 6.63530736 -1.96075825 11.75501444 -6 17 C-6.99 17.33 -7.98 17.66 -9 18 C-8.67 16.68 -8.34 15.36 -8 14 C-7.34 14 -6.68 14 -6 14 C-5.7525 13.175 -5.505 12.35 -5.25 11.5 C-3.81295189 7.47626529 -1.97645485 3.78020976 0 0 Z " fill="#0B0708" transform="translate(392,330)"/>
<path d="M0 0 C0 2.73857163 -0.31082697 4.96036739 -0.875 7.625 C-1.03742187 8.42164063 -1.19984375 9.21828125 -1.3671875 10.0390625 C-1.57601562 10.68617188 -1.78484375 11.33328125 -2 12 C-2.99 12.495 -2.99 12.495 -4 13 C-4.33 12.34 -4.66 11.68 -5 11 C-6.32 12.32 -7.64 13.64 -9 15 C-9 10.9255567 -6.90830751 8.88254967 -4.5 5.8125 C-3.85611328 4.97428711 -3.85611328 4.97428711 -3.19921875 4.11914062 C-2.13921945 2.74114153 -1.07043812 1.36990593 0 0 Z " fill="#120C0F" transform="translate(654,302)"/>
<path d="M0 0 C-2.64 0.99 -5.28 1.98 -8 3 C-6.68 3.66 -5.36 4.32 -4 5 C-4.59167969 4.98839844 -5.18335938 4.97679688 -5.79296875 4.96484375 C-10.00231785 4.91677614 -13.8922333 4.93993117 -18 6 C-17.34 5.67 -16.68 5.34 -16 5 C-16 4.34 -16 3.68 -16 3 C-5.49579832 -1.83193277 -5.49579832 -1.83193277 0 0 Z " fill="#090607" transform="translate(417,123)"/>
<path d="M0 0 C7.42857143 -0.28571429 7.42857143 -0.28571429 11 2 C10.34 2 9.68 2 9 2 C9 2.66 9 3.32 9 4 C4.545 4.495 4.545 4.495 0 5 C0 3.33333333 0 1.66666667 0 0 Z " fill="#0B0809" transform="translate(419,145)"/>
<path d="M0 0 C0.33 0 0.66 0 1 0 C1.08103404 2.91722548 1.14051081 5.83219516 1.1875 8.75 C1.22520508 9.9875 1.22520508 9.9875 1.26367188 11.25 C1.33834499 17.42297754 1.33834499 17.42297754 -0.51171875 20.578125 C-1.24841797 21.28195312 -1.24841797 21.28195312 -2 22 C-1.5140207 14.6379306 -1.02325928 7.30899482 0 0 Z " fill="#020000" transform="translate(683,341)"/>
<path d="M0 0 C1.0326802 2.78823655 1.04509293 3.8677274 0.0625 6.75 C-0.288125 7.4925 -0.63875 8.235 -1 9 C-1.66 9 -2.32 9 -3 9 C-3 9.66 -3 10.32 -3 11 C-3.66 11 -4.32 11 -5 11 C-5 8.69 -5 6.38 -5 4 C-4.01 4 -3.02 4 -2 4 C-1.34 2.68 -0.68 1.36 0 0 Z " fill="#0B0807" transform="translate(424,264)"/>
<path d="M0 0 C1.32 1.32 2.64 2.64 4 4 C3.67 4.99 3.34 5.98 3 7 C3.66 7.33 4.32 7.66 5 8 C4.01 8.66 3.02 9.32 2 10 C1.34 9.67 0.68 9.34 0 9 C-1.28571429 2.57142857 -1.28571429 2.57142857 0 0 Z " fill="#171613" transform="translate(444,439)"/>
<path d="M0 0 C0.33 1.32 0.66 2.64 1 4 C0.278125 4.391875 -0.44375 4.78375 -1.1875 5.1875 C-4.227326 7.14649898 -6.52127727 9.37963597 -9 12 C-8.67 10.35 -8.34 8.7 -8 7 C-7.34 7 -6.68 7 -6 7 C-5.67 6.01 -5.34 5.02 -5 4 C-3.37667033 2.61423077 -1.71275535 1.27358732 0 0 Z " fill="#080606" transform="translate(569,322)"/>
<path d="M0 0 C0.66 0 1.32 0 2 0 C2.66 1.65 3.32 3.3 4 5 C2.38405168 7.04119788 0.7143618 9.04072937 -1 11 C-1.66 11 -2.32 11 -3 11 C-2.690625 10.29875 -2.38125 9.5975 -2.0625 8.875 C-0.96697322 5.91063343 -0.43577008 3.12301892 0 0 Z " fill="#0B0809" transform="translate(681,227)"/>
<path d="M0 0 C0 0.99 0 1.98 0 3 C-7.42857143 5.14285714 -7.42857143 5.14285714 -11 6 C-11 5.34 -11 4.68 -11 4 C-4.5 0 -4.5 0 0 0 Z " fill="#090708" transform="translate(395,131)"/>
<path d="M0 0 C0.66 0 1.32 0 2 0 C1.01 3.3 0.02 6.6 -1 10 C-1.66 9.34 -2.32 8.68 -3 8 C-3.99 8.66 -4.98 9.32 -6 10 C-4.34643078 6.41726669 -2.32019297 3.19026533 0 0 Z " fill="#110910" transform="translate(598,87)"/>
<path d="M0 0 C-1 2 -1 2 -2.92578125 2.66796875 C-3.71339844 2.83941406 -4.50101563 3.01085937 -5.3125 3.1875 C-6.09238281 3.36667969 -6.87226562 3.54585938 -7.67578125 3.73046875 C-10.09204759 4.01067443 -11.70242952 3.74132137 -14 3 C-9.07015675 0.96006486 -5.42039575 -0.40652968 0 0 Z " fill="#010100" transform="translate(616,420)"/>
<path d="M0 0 C0.66 0.33 1.32 0.66 2 1 C-1.65333143 3.63379708 -4.48521602 5.46884894 -9 6 C-9 5.34 -9 4.68 -9 4 C-7.54618103 3.30300448 -6.08677047 2.61766134 -4.625 1.9375 C-3.40683594 1.36322266 -3.40683594 1.36322266 -2.1640625 0.77734375 C-1.44992187 0.52082031 -0.73578125 0.26429688 0 0 Z " fill="#0F090B" transform="translate(415,150)"/>
<path d="M0 0 C0 1.98 0 3.96 0 6 C-1.65 6.33 -3.3 6.66 -5 7 C-4.6875 4.625 -4.6875 4.625 -4 2 C-1 0 -1 0 0 0 Z " fill="#090707" transform="translate(634,238)"/>
<path d="M0 0 C1.32 0 2.64 0 4 0 C4.1875 2.375 4.1875 2.375 4 5 C3.01 5.66 2.02 6.32 1 7 C0 4 0 4 0 0 Z " fill="#0E0A0B" transform="translate(425,256)"/>
<path d="M0 0 C0.33 1.32 0.66 2.64 1 4 C0.4225 4.0825 -0.155 4.165 -0.75 4.25 C-3.6159304 5.20531013 -4.9990764 6.78469173 -7 9 C-6.38722388 6.03824877 -5.74627478 4.61941217 -4 2 C-1.875 0.8125 -1.875 0.8125 0 0 Z " fill="#0A0508" transform="translate(575,119)"/>
<path d="M0 0 C2.97 0 5.94 0 9 0 C8 2 8 2 5.625 3.25 C4.75875 3.4975 3.8925 3.745 3 4 C2.01 3.34 1.02 2.68 0 2 C0 1.34 0 0.68 0 0 Z " fill="#0E0E0C" transform="translate(600,419)"/>
<path d="M0 0 C-3 2 -3 2 -6 2 C-6 2.66 -6 3.32 -6 4 C-7.9375 3.625 -7.9375 3.625 -10 3 C-10.33 2.34 -10.66 1.68 -11 1 C-7.32589215 -0.17571451 -3.83070817 -0.07366746 0 0 Z " fill="#0D0A0C" transform="translate(611,385)"/>
<path d="M0 0 C1.32 0.33 2.64 0.66 4 1 C3.6875 2.875 3.6875 2.875 3 5 C2.01 5.66 1.02 6.32 0 7 C0 4.69 0 2.38 0 0 Z " fill="#0F100C" transform="translate(523,145)"/>
<path d="M0 0 C1.65 0 3.3 0 5 0 C4.01 1.98 3.02 3.96 2 6 C1.34 6 0.68 6 0 6 C0 4.02 0 2.04 0 0 Z " fill="#0E0E0B" transform="translate(669,379)"/>
<path d="M0 0 C1.06546953 3.1964086 1.07427838 5.65747276 1 9 C0.01 8.67 -0.98 8.34 -2 8 C-2 6.02 -2 4.04 -2 2 C-1.34 2 -0.68 2 0 2 C0 1.34 0 0.68 0 0 Z " fill="#050404" transform="translate(447,434)"/>
<path d="M0 0 C0.6875 1.6875 0.6875 1.6875 1 4 C-0.4375 6.75 -0.4375 6.75 -2 9 C-2.6875 7.3125 -2.6875 7.3125 -3 5 C-1.5625 2.25 -1.5625 2.25 0 0 Z " fill="#0D0709" transform="translate(541,218)"/>
<path d="M0 0 C0 0.99 0 1.98 0 3 C-2.64 3 -5.28 3 -8 3 C-5.53387212 -0.1151089 -3.89156016 -0.31553191 0 0 Z " fill="#030201" transform="translate(454,177)"/>
<path d="M0 0 C0.66 0.99 1.32 1.98 2 3 C1.125 5.6875 1.125 5.6875 0 8 C-0.66 8 -1.32 8 -2 8 C-2.33 8.66 -2.66 9.32 -3 10 C-2.21302675 6.58978257 -1.12880057 3.31114834 0 0 Z " fill="#120A10" transform="translate(473,364)"/>
<path d="M0 0 C0 3 0 3 -2.5 5.6875 C-3.325 6.450625 -4.15 7.21375 -5 8 C-4.64950425 4.75791433 -4.43778819 3.38472296 -1.9375 1.1875 C-1.298125 0.795625 -0.65875 0.40375 0 0 Z " fill="#120A0E" transform="translate(647,279)"/>
<path d="M0 0 C0 3 0 3 -2 6 C-2.66 6 -3.32 6 -4 6 C-4.33 6.66 -4.66 7.32 -5 8 C-4.64950425 4.75791433 -4.43778819 3.38472296 -1.9375 1.1875 C-1.298125 0.795625 -0.65875 0.40375 0 0 Z " fill="#110A0F" transform="translate(585,267)"/>
</svg>
